<svg width="40" height="40" viewBox="0 0 40 40" fill="none" xmlns="http://www.w3.org/2000/svg">
<g filter="url(#filter0_b_820_1988)">
<circle cx="20" cy="20" r="20" transform="matrix(-1 0 0 1 40 0)" fill="url(#paint0_linear_820_1988)"/>
<circle cx="20" cy="20" r="20" transform="matrix(-1 0 0 1 40 0)" fill="#F23D3D"/>
<circle cx="20" cy="20" r="20" transform="matrix(-1 0 0 1 40 0)" fill="#554795"/>
<circle cx="20" cy="20" r="19.5" transform="matrix(-1 0 0 1 40 0)" stroke="url(#paint1_linear_820_1988)"/>
</g>
<path d="M15 20L19.4828 15M15 20L19.4828 25M15 20H25" stroke="white" stroke-width="1.5"/>
<defs>
<filter id="filter0_b_820_1988" x="-12" y="-12" width="64" height="64" filterUnits="userSpaceOnUse" color-interpolation-filters="sRGB">
<feFlood flood-opacity="0" result="BackgroundImageFix"/>
<feGaussianBlur in="BackgroundImageFix" stdDeviation="6"/>
<feComposite in2="SourceAlpha" operator="in" result="effect1_backgroundBlur_820_1988"/>
<feBlend mode="normal" in="SourceGraphic" in2="effect1_backgroundBlur_820_1988" result="shape"/>
</filter>
<linearGradient id="paint0_linear_820_1988" x1="0" y1="0" x2="44.6975" y2="6.21477" gradientUnits="userSpaceOnUse">
<stop stop-color="white"/>
<stop offset="1" stop-color="white" stop-opacity="0.7"/>
</linearGradient>
<linearGradient id="paint1_linear_820_1988" x1="40" y1="40" x2="-4.69752" y2="33.7852" gradientUnits="userSpaceOnUse">
<stop stop-color="white" stop-opacity="0.5"/>
<stop offset="1" stop-color="white" stop-opacity="0.2"/>
</linearGradient>
</defs>
</svg>
