<svg width="204" height="208" viewBox="0 0 204 208" fill="none" xmlns="http://www.w3.org/2000/svg">
<path d="M33.7376 175.19C36.3018 175.19 38.3804 173.112 38.3804 170.547C38.3804 167.983 36.3018 165.905 33.7376 165.905C31.1734 165.905 29.0947 167.983 29.0947 170.547C29.0947 173.112 31.1734 175.19 33.7376 175.19Z" fill="#858585" fill-opacity="0.4" style="mix-blend-mode:multiply"/>
<path d="M60.9759 146.714C63.54 146.714 65.6187 144.635 65.6187 142.071C65.6187 139.507 63.54 137.428 60.9759 137.428C58.4117 137.428 56.333 139.507 56.333 142.071C56.333 144.635 58.4117 146.714 60.9759 146.714Z" fill="#858585" fill-opacity="0.4" style="mix-blend-mode:multiply"/>
<path d="M89.4524 119.476C92.0166 119.476 94.0953 117.397 94.0953 114.833C94.0953 112.269 92.0166 110.19 89.4524 110.19C86.8882 110.19 84.8096 112.269 84.8096 114.833C84.8096 117.397 86.8882 119.476 89.4524 119.476Z" fill="#858585" fill-opacity="0.4" style="mix-blend-mode:multiply"/>
<path d="M116.691 91.619C119.255 91.619 121.334 89.5403 121.334 86.9761C121.334 84.4119 119.255 82.3333 116.691 82.3333C114.127 82.3333 112.048 84.4119 112.048 86.9761C112.048 89.5403 114.127 91.619 116.691 91.619Z" fill="#858585" fill-opacity="0.4" style="mix-blend-mode:multiply"/>
<path d="M90.0725 64.3812C92.6367 64.3812 94.7154 62.3025 94.7154 59.7383C94.7154 57.1741 92.6367 55.0955 90.0725 55.0955C87.5084 55.0955 85.4297 57.1741 85.4297 59.7383C85.4297 62.3025 87.5084 64.3812 90.0725 64.3812Z" fill="#858585" fill-opacity="0.4" style="mix-blend-mode:multiply"/>
<path d="M60.9759 37.1429C63.54 37.1429 65.6187 35.0642 65.6187 32.5C65.6187 29.9359 63.54 27.8572 60.9759 27.8572C58.4117 27.8572 56.333 29.9359 56.333 32.5C56.333 35.0642 58.4117 37.1429 60.9759 37.1429Z" fill="#858585" fill-opacity="0.4" style="mix-blend-mode:multiply"/>
<path d="M33.7376 9.28571C36.3018 9.28571 38.3804 7.20704 38.3804 4.64286C38.3804 2.07868 36.3018 0 33.7376 0C31.1734 0 29.0947 2.07868 29.0947 4.64286C29.0947 7.20704 31.1734 9.28571 33.7376 9.28571Z" fill="#858585" fill-opacity="0.4" style="mix-blend-mode:multiply"/>
<path d="M61.595 175.19C64.1592 175.19 66.2379 173.112 66.2379 170.547C66.2379 167.983 64.1592 165.905 61.595 165.905C59.0308 165.905 56.9521 167.983 56.9521 170.547C56.9521 173.112 59.0308 175.19 61.595 175.19Z" fill="#858585" fill-opacity="0.4" style="mix-blend-mode:multiply"/>
<path d="M88.8333 146.714C91.3975 146.714 93.4761 144.635 93.4761 142.071C93.4761 139.507 91.3975 137.428 88.8333 137.428C86.2691 137.428 84.1904 139.507 84.1904 142.071C84.1904 144.635 86.2691 146.714 88.8333 146.714Z" fill="#858585" fill-opacity="0.4" style="mix-blend-mode:multiply"/>
<path d="M117.31 119.476C119.874 119.476 121.953 117.397 121.953 114.833C121.953 112.269 119.874 110.19 117.31 110.19C114.746 110.19 112.667 112.269 112.667 114.833C112.667 117.397 114.746 119.476 117.31 119.476Z" fill="#858585" fill-opacity="0.4" style="mix-blend-mode:multiply"/>
<path d="M144.547 91.619C147.111 91.619 149.19 89.5403 149.19 86.9761C149.19 84.4119 147.111 82.3333 144.547 82.3333C141.983 82.3333 139.904 84.4119 139.904 86.9761C139.904 89.5403 141.983 91.619 144.547 91.619Z" fill="#858585" fill-opacity="0.4" style="mix-blend-mode:multiply"/>
<path d="M117.928 64.3812C120.492 64.3812 122.571 62.3025 122.571 59.7383C122.571 57.1741 120.492 55.0955 117.928 55.0955C115.364 55.0955 113.285 57.1741 113.285 59.7383C113.285 62.3025 115.364 64.3812 117.928 64.3812Z" fill="#858585" fill-opacity="0.4" style="mix-blend-mode:multiply"/>
<path d="M88.8333 37.1429C91.3975 37.1429 93.4761 35.0642 93.4761 32.5C93.4761 29.9359 91.3975 27.8572 88.8333 27.8572C86.2691 27.8572 84.1904 29.9359 84.1904 32.5C84.1904 35.0642 86.2691 37.1429 88.8333 37.1429Z" fill="#858585" fill-opacity="0.4" style="mix-blend-mode:multiply"/>
<path d="M61.595 9.28571C64.1592 9.28571 66.2379 7.20704 66.2379 4.64286C66.2379 2.07868 64.1592 0 61.595 0C59.0308 0 56.9521 2.07868 56.9521 4.64286C56.9521 7.20704 59.0308 9.28571 61.595 9.28571Z" fill="#858585" fill-opacity="0.4" style="mix-blend-mode:multiply"/>
<path d="M89.4524 175.19C92.0166 175.19 94.0953 173.112 94.0953 170.547C94.0953 167.983 92.0166 165.905 89.4524 165.905C86.8882 165.905 84.8096 167.983 84.8096 170.547C84.8096 173.112 86.8882 175.19 89.4524 175.19Z" fill="#858585" fill-opacity="0.4" style="mix-blend-mode:multiply"/>
<path d="M116.691 146.714C119.255 146.714 121.334 144.635 121.334 142.071C121.334 139.507 119.255 137.428 116.691 137.428C114.127 137.428 112.048 139.507 112.048 142.071C112.048 144.635 114.127 146.714 116.691 146.714Z" fill="#858585" fill-opacity="0.4" style="mix-blend-mode:multiply"/>
<path d="M145.166 119.476C147.73 119.476 149.809 117.397 149.809 114.833C149.809 112.269 147.73 110.19 145.166 110.19C142.602 110.19 140.523 112.269 140.523 114.833C140.523 117.397 142.602 119.476 145.166 119.476Z" fill="#858585" fill-opacity="0.4" style="mix-blend-mode:multiply"/>
<path d="M172.406 91.619C174.97 91.619 177.048 89.5403 177.048 86.9761C177.048 84.4119 174.97 82.3333 172.406 82.3333C169.841 82.3333 167.763 84.4119 167.763 86.9761C167.763 89.5403 169.841 91.619 172.406 91.619Z" fill="#858585" fill-opacity="0.4" style="mix-blend-mode:multiply"/>
<path d="M145.785 64.3812C148.35 64.3812 150.428 62.3025 150.428 59.7383C150.428 57.1741 148.35 55.0955 145.785 55.0955C143.221 55.0955 141.143 57.1741 141.143 59.7383C141.143 62.3025 143.221 64.3812 145.785 64.3812Z" fill="#858585" fill-opacity="0.4" style="mix-blend-mode:multiply"/>
<path d="M116.691 37.1429C119.255 37.1429 121.334 35.0642 121.334 32.5C121.334 29.9359 119.255 27.8572 116.691 27.8572C114.127 27.8572 112.048 29.9359 112.048 32.5C112.048 35.0642 114.127 37.1429 116.691 37.1429Z" fill="#858585" fill-opacity="0.4" style="mix-blend-mode:multiply"/>
<path d="M89.4524 9.28571C92.0166 9.28571 94.0953 7.20704 94.0953 4.64286C94.0953 2.07868 92.0166 0 89.4524 0C86.8882 0 84.8096 2.07868 84.8096 4.64286C84.8096 7.20704 86.8882 9.28571 89.4524 9.28571Z" fill="#858585" fill-opacity="0.4" style="mix-blend-mode:multiply"/>
<path d="M116.072 175.19C118.636 175.19 120.714 173.112 120.714 170.547C120.714 167.983 118.636 165.905 116.072 165.905C113.507 165.905 111.429 167.983 111.429 170.547C111.429 173.112 113.507 175.19 116.072 175.19Z" fill="#858585" fill-opacity="0.4" style="mix-blend-mode:multiply"/>
<path d="M143.31 146.714C145.874 146.714 147.953 144.635 147.953 142.071C147.953 139.507 145.874 137.428 143.31 137.428C140.746 137.428 138.667 139.507 138.667 142.071C138.667 144.635 140.746 146.714 143.31 146.714Z" fill="#858585" fill-opacity="0.4" style="mix-blend-mode:multiply"/>
<path d="M171.785 119.476C174.35 119.476 176.428 117.397 176.428 114.833C176.428 112.269 174.35 110.19 171.785 110.19C169.221 110.19 167.143 112.269 167.143 114.833C167.143 117.397 169.221 119.476 171.785 119.476Z" fill="#858585" fill-opacity="0.4" style="mix-blend-mode:multiply"/>
<path d="M199.024 91.619C201.588 91.619 203.667 89.5403 203.667 86.9761C203.667 84.4119 201.588 82.3333 199.024 82.3333C196.46 82.3333 194.381 84.4119 194.381 86.9761C194.381 89.5403 196.46 91.619 199.024 91.619Z" fill="#858585" fill-opacity="0.4" style="mix-blend-mode:multiply"/>
<path d="M172.406 64.3812C174.97 64.3812 177.048 62.3025 177.048 59.7383C177.048 57.1741 174.97 55.0955 172.406 55.0955C169.841 55.0955 167.763 57.1741 167.763 59.7383C167.763 62.3025 169.841 64.3812 172.406 64.3812Z" fill="#858585" fill-opacity="0.4" style="mix-blend-mode:multiply"/>
<path d="M143.31 37.1429C145.874 37.1429 147.953 35.0642 147.953 32.5C147.953 29.9359 145.874 27.8572 143.31 27.8572C140.746 27.8572 138.667 29.9359 138.667 32.5C138.667 35.0642 140.746 37.1429 143.31 37.1429Z" fill="#858585" fill-opacity="0.4" style="mix-blend-mode:multiply"/>
<path d="M116.072 9.28571C118.636 9.28571 120.714 7.20704 120.714 4.64286C120.714 2.07868 118.636 0 116.072 0C113.507 0 111.429 2.07868 111.429 4.64286C111.429 7.20704 113.507 9.28571 116.072 9.28571Z" fill="#858585" fill-opacity="0.4" style="mix-blend-mode:multiply"/>
</svg>
