<svg width="235" height="240" viewBox="0 0 235 240" fill="none" xmlns="http://www.w3.org/2000/svg">
<path d="M38.9284 202.143C41.8871 202.143 44.2856 199.744 44.2856 196.786C44.2856 193.827 41.8871 191.428 38.9284 191.428C35.9698 191.428 33.5713 193.827 33.5713 196.786C33.5713 199.744 35.9698 202.143 38.9284 202.143Z" fill="#F23D3D" fill-opacity="0.4" style="mix-blend-mode:multiply"/>
<path d="M70.3571 169.286C73.3158 169.286 75.7143 166.887 75.7143 163.928C75.7143 160.97 73.3158 158.571 70.3571 158.571C67.3985 158.571 65 160.97 65 163.928C65 166.887 67.3985 169.286 70.3571 169.286Z" fill="#F23D3D" fill-opacity="0.4" style="mix-blend-mode:multiply"/>
<path d="M103.215 137.857C106.173 137.857 108.572 135.459 108.572 132.5C108.572 129.541 106.173 127.143 103.215 127.143C100.256 127.143 97.8574 129.541 97.8574 132.5C97.8574 135.459 100.256 137.857 103.215 137.857Z" fill="#F23D3D" fill-opacity="0.4" style="mix-blend-mode:multiply"/>
<path d="M134.643 105.714C137.601 105.714 140 103.316 140 100.357C140 97.3986 137.601 95.0001 134.643 95.0001C131.684 95.0001 129.286 97.3986 129.286 100.357C129.286 103.316 131.684 105.714 134.643 105.714Z" fill="#F23D3D" fill-opacity="0.4" style="mix-blend-mode:multiply"/>
<path d="M103.929 74.2861C106.888 74.2861 109.286 71.8876 109.286 68.9289C109.286 65.9703 106.888 63.5718 103.929 63.5718C100.97 63.5718 98.5718 65.9703 98.5718 68.9289C98.5718 71.8876 100.97 74.2861 103.929 74.2861Z" fill="#F23D3D" fill-opacity="0.4" style="mix-blend-mode:multiply"/>
<path d="M70.3571 42.8571C73.3158 42.8571 75.7143 40.4586 75.7143 37.5C75.7143 34.5413 73.3158 32.1428 70.3571 32.1428C67.3985 32.1428 65 34.5413 65 37.5C65 40.4586 67.3985 42.8571 70.3571 42.8571Z" fill="#F23D3D" fill-opacity="0.4" style="mix-blend-mode:multiply"/>
<path d="M38.9284 10.7143C41.8871 10.7143 44.2856 8.31582 44.2856 5.35715C44.2856 2.39848 41.8871 0 38.9284 0C35.9698 0 33.5713 2.39848 33.5713 5.35715C33.5713 8.31582 35.9698 10.7143 38.9284 10.7143Z" fill="#F23D3D" fill-opacity="0.4" style="mix-blend-mode:multiply"/>
<path d="M71.0715 202.143C74.0302 202.143 76.4286 199.744 76.4286 196.786C76.4286 193.827 74.0302 191.428 71.0715 191.428C68.1128 191.428 65.7144 193.827 65.7144 196.786C65.7144 199.744 68.1128 202.143 71.0715 202.143Z" fill="#F23D3D" fill-opacity="0.4" style="mix-blend-mode:multiply"/>
<path d="M102.5 169.286C105.458 169.286 107.857 166.887 107.857 163.928C107.857 160.97 105.458 158.571 102.5 158.571C99.5411 158.571 97.1426 160.97 97.1426 163.928C97.1426 166.887 99.5411 169.286 102.5 169.286Z" fill="#F23D3D" fill-opacity="0.4" style="mix-blend-mode:multiply"/>
<path d="M135.357 137.857C138.315 137.857 140.714 135.459 140.714 132.5C140.714 129.541 138.315 127.143 135.357 127.143C132.398 127.143 130 129.541 130 132.5C130 135.459 132.398 137.857 135.357 137.857Z" fill="#F23D3D" fill-opacity="0.4" style="mix-blend-mode:multiply"/>
<path d="M166.785 105.714C169.744 105.714 172.143 103.316 172.143 100.357C172.143 97.3986 169.744 95.0001 166.785 95.0001C163.827 95.0001 161.428 97.3986 161.428 100.357C161.428 103.316 163.827 105.714 166.785 105.714Z" fill="#F23D3D" fill-opacity="0.4" style="mix-blend-mode:multiply"/>
<path d="M136.071 74.2861C139.03 74.2861 141.429 71.8876 141.429 68.9289C141.429 65.9703 139.03 63.5718 136.071 63.5718C133.113 63.5718 130.714 65.9703 130.714 68.9289C130.714 71.8876 133.113 74.2861 136.071 74.2861Z" fill="#F23D3D" fill-opacity="0.4" style="mix-blend-mode:multiply"/>
<path d="M102.5 42.8571C105.458 42.8571 107.857 40.4586 107.857 37.5C107.857 34.5413 105.458 32.1428 102.5 32.1428C99.5411 32.1428 97.1426 34.5413 97.1426 37.5C97.1426 40.4586 99.5411 42.8571 102.5 42.8571Z" fill="#F23D3D" fill-opacity="0.4" style="mix-blend-mode:multiply"/>
<path d="M71.0715 10.7143C74.0302 10.7143 76.4286 8.31582 76.4286 5.35715C76.4286 2.39848 74.0302 0 71.0715 0C68.1128 0 65.7144 2.39848 65.7144 5.35715C65.7144 8.31582 68.1128 10.7143 71.0715 10.7143Z" fill="#F23D3D" fill-opacity="0.4" style="mix-blend-mode:multiply"/>
<path d="M103.215 202.143C106.173 202.143 108.572 199.744 108.572 196.786C108.572 193.827 106.173 191.428 103.215 191.428C100.256 191.428 97.8574 193.827 97.8574 196.786C97.8574 199.744 100.256 202.143 103.215 202.143Z" fill="#F23D3D" fill-opacity="0.4" style="mix-blend-mode:multiply"/>
<path d="M134.643 169.286C137.601 169.286 140 166.887 140 163.928C140 160.97 137.601 158.571 134.643 158.571C131.684 158.571 129.286 160.97 129.286 163.928C129.286 166.887 131.684 169.286 134.643 169.286Z" fill="#F23D3D" fill-opacity="0.4" style="mix-blend-mode:multiply"/>
<path d="M167.5 137.857C170.458 137.857 172.857 135.459 172.857 132.5C172.857 129.541 170.458 127.143 167.5 127.143C164.541 127.143 162.143 129.541 162.143 132.5C162.143 135.459 164.541 137.857 167.5 137.857Z" fill="#F23D3D" fill-opacity="0.4" style="mix-blend-mode:multiply"/>
<path d="M198.929 105.714C201.888 105.714 204.286 103.316 204.286 100.357C204.286 97.3986 201.888 95.0001 198.929 95.0001C195.97 95.0001 193.572 97.3986 193.572 100.357C193.572 103.316 195.97 105.714 198.929 105.714Z" fill="#F23D3D" fill-opacity="0.4" style="mix-blend-mode:multiply"/>
<path d="M168.214 74.2861C171.173 74.2861 173.571 71.8876 173.571 68.9289C173.571 65.9703 171.173 63.5718 168.214 63.5718C165.255 63.5718 162.857 65.9703 162.857 68.9289C162.857 71.8876 165.255 74.2861 168.214 74.2861Z" fill="#F23D3D" fill-opacity="0.4" style="mix-blend-mode:multiply"/>
<path d="M134.643 42.8571C137.601 42.8571 140 40.4586 140 37.5C140 34.5413 137.601 32.1428 134.643 32.1428C131.684 32.1428 129.286 34.5413 129.286 37.5C129.286 40.4586 131.684 42.8571 134.643 42.8571Z" fill="#F23D3D" fill-opacity="0.4" style="mix-blend-mode:multiply"/>
<path d="M103.215 10.7143C106.173 10.7143 108.572 8.31582 108.572 5.35715C108.572 2.39848 106.173 0 103.215 0C100.256 0 97.8574 2.39848 97.8574 5.35715C97.8574 8.31582 100.256 10.7143 103.215 10.7143Z" fill="#F23D3D" fill-opacity="0.4" style="mix-blend-mode:multiply"/>
<path d="M133.928 202.143C136.887 202.143 139.286 199.744 139.286 196.786C139.286 193.827 136.887 191.428 133.928 191.428C130.97 191.428 128.571 193.827 128.571 196.786C128.571 199.744 130.97 202.143 133.928 202.143Z" fill="#F23D3D" fill-opacity="0.4" style="mix-blend-mode:multiply"/>
<path d="M165.357 169.286C168.316 169.286 170.714 166.887 170.714 163.928C170.714 160.97 168.316 158.571 165.357 158.571C162.398 158.571 160 160.97 160 163.928C160 166.887 162.398 169.286 165.357 169.286Z" fill="#F23D3D" fill-opacity="0.4" style="mix-blend-mode:multiply"/>
<path d="M198.215 137.857C201.173 137.857 203.572 135.459 203.572 132.5C203.572 129.541 201.173 127.143 198.215 127.143C195.256 127.143 192.857 129.541 192.857 132.5C192.857 135.459 195.256 137.857 198.215 137.857Z" fill="#F23D3D" fill-opacity="0.4" style="mix-blend-mode:multiply"/>
<path d="M229.643 105.714C232.601 105.714 235 103.316 235 100.357C235 97.3986 232.601 95.0001 229.643 95.0001C226.684 95.0001 224.286 97.3986 224.286 100.357C224.286 103.316 226.684 105.714 229.643 105.714Z" fill="#F23D3D" fill-opacity="0.4" style="mix-blend-mode:multiply"/>
<path d="M198.929 74.2861C201.888 74.2861 204.286 71.8876 204.286 68.9289C204.286 65.9703 201.888 63.5718 198.929 63.5718C195.97 63.5718 193.572 65.9703 193.572 68.9289C193.572 71.8876 195.97 74.2861 198.929 74.2861Z" fill="#F23D3D" fill-opacity="0.4" style="mix-blend-mode:multiply"/>
<path d="M165.357 42.8571C168.316 42.8571 170.714 40.4586 170.714 37.5C170.714 34.5413 168.316 32.1428 165.357 32.1428C162.398 32.1428 160 34.5413 160 37.5C160 40.4586 162.398 42.8571 165.357 42.8571Z" fill="#F23D3D" fill-opacity="0.4" style="mix-blend-mode:multiply"/>
<path d="M133.928 10.7143C136.887 10.7143 139.286 8.31582 139.286 5.35715C139.286 2.39848 136.887 0 133.928 0C130.97 0 128.571 2.39848 128.571 5.35715C128.571 8.31582 130.97 10.7143 133.928 10.7143Z" fill="#F23D3D" fill-opacity="0.4" style="mix-blend-mode:multiply"/>
</svg>
