<svg width="241" height="401" viewBox="0 0 241 401" fill="none" xmlns="http://www.w3.org/2000/svg">
<path d="M10.5 263C14.6421 263 18 259.642 18 255.5C18 251.358 14.6421 248 10.5 248C6.35786 248 3 251.358 3 255.5C3 259.642 6.35786 263 10.5 263Z" fill="#F4F4F0" style="mix-blend-mode:multiply"/>
<path d="M56.5 193C60.6421 193 64 189.642 64 185.5C64 181.358 60.6421 178 56.5 178C52.3579 178 49 181.358 49 185.5C49 189.642 52.3579 193 56.5 193Z" fill="#F4F4F0" style="mix-blend-mode:multiply"/>
<path d="M100.5 148C104.642 148 108 144.642 108 140.5C108 136.358 104.642 133 100.5 133C96.3579 133 93 136.358 93 140.5C93 144.642 96.3579 148 100.5 148Z" fill="#F4F4F0" style="mix-blend-mode:multiply"/>
<path d="M57.5 104C61.6421 104 65 100.642 65 96.5C65 92.3579 61.6421 89 57.5 89C53.3579 89 50 92.3579 50 96.5C50 100.642 53.3579 104 57.5 104Z" fill="#F4F4F0" style="mix-blend-mode:multiply"/>
<path d="M10.5 86C14.6421 86 18 82.6421 18 78.5C18 74.3579 14.6421 71 10.5 71C6.35786 71 3 74.3579 3 78.5C3 82.6421 6.35786 86 10.5 86Z" fill="#F4F4F0" style="mix-blend-mode:multiply"/>
<path d="M11.5 309C15.6421 309 19 305.642 19 301.5C19 297.358 15.6421 294 11.5 294C7.35786 294 4 297.358 4 301.5C4 305.642 7.35786 309 11.5 309Z" fill="#F4F4F0" style="mix-blend-mode:multiply"/>
<path d="M55.5 237C59.6421 237 63 233.642 63 229.5C63 225.358 59.6421 222 55.5 222C51.3579 222 48 225.358 48 229.5C48 233.642 51.3579 237 55.5 237Z" fill="#F4F4F0" style="mix-blend-mode:multiply"/>
<path d="M101.5 193C105.642 193 109 189.642 109 185.5C109 181.358 105.642 178 101.5 178C97.3579 178 94 181.358 94 185.5C94 189.642 97.3579 193 101.5 193Z" fill="#F4F4F0" style="mix-blend-mode:multiply"/>
<path d="M145.5 148C149.642 148 153 144.642 153 140.5C153 136.358 149.642 133 145.5 133C141.358 133 138 136.358 138 140.5C138 144.642 141.358 148 145.5 148Z" fill="#F4F4F0" style="mix-blend-mode:multiply"/>
<path d="M102.5 104C106.642 104 110 100.642 110 96.5C110 92.3579 106.642 89 102.5 89C98.3579 89 95 92.3579 95 96.5C95 100.642 98.3579 104 102.5 104Z" fill="#F4F4F0" style="mix-blend-mode:multiply"/>
<path d="M55.5 60C59.6421 60 63 56.6421 63 52.5C63 48.3579 59.6421 45 55.5 45C51.3579 45 48 48.3579 48 52.5C48 56.6421 51.3579 60 55.5 60Z" fill="#F4F4F0" style="mix-blend-mode:multiply"/>
<path d="M11.5 41C15.6421 41 19 37.6421 19 33.5C19 29.3579 15.6421 26 11.5 26C7.35786 26 4 29.3579 4 33.5C4 37.6421 7.35786 41 11.5 41Z" fill="#F4F4F0" style="mix-blend-mode:multiply"/>
<path d="M56.5 283C60.6421 283 64 279.642 64 275.5C64 271.358 60.6421 268 56.5 268C52.3579 268 49 271.358 49 275.5C49 279.642 52.3579 283 56.5 283Z" fill="#F4F4F0" style="mix-blend-mode:multiply"/>
<path d="M9.5 355C13.6421 355 17 351.642 17 347.5C17 343.358 13.6421 340 9.5 340C5.35786 340 2 343.358 2 347.5C2 351.642 5.35786 355 9.5 355Z" fill="#F4F4F0" style="mix-blend-mode:multiply"/>
<path d="M100.5 237C104.642 237 108 233.642 108 229.5C108 225.358 104.642 222 100.5 222C96.3579 222 93 225.358 93 229.5C93 233.642 96.3579 237 100.5 237Z" fill="#F4F4F0" style="mix-blend-mode:multiply"/>
<path d="M146.5 193C150.642 193 154 189.642 154 185.5C154 181.358 150.642 178 146.5 178C142.358 178 139 181.358 139 185.5C139 189.642 142.358 193 146.5 193Z" fill="#F4F4F0" style="mix-blend-mode:multiply"/>
<path d="M190.5 148C194.642 148 198 144.642 198 140.5C198 136.358 194.642 133 190.5 133C186.358 133 183 136.358 183 140.5C183 144.642 186.358 148 190.5 148Z" fill="#F4F4F0" style="mix-blend-mode:multiply"/>
<path d="M147.5 104C151.642 104 155 100.642 155 96.5C155 92.3579 151.642 89 147.5 89C143.358 89 140 92.3579 140 96.5C140 100.642 143.358 104 147.5 104Z" fill="#F4F4F0" style="mix-blend-mode:multiply"/>
<path d="M100.5 60C104.642 60 108 56.6421 108 52.5C108 48.3579 104.642 45 100.5 45C96.3579 45 93 48.3579 93 52.5C93 56.6421 96.3579 60 100.5 60Z" fill="#F4F4F0" style="mix-blend-mode:multiply"/>
<path d="M56.5 15C60.6421 15 64 11.6421 64 7.50001C64 3.35787 60.6421 0 56.5 0C52.3579 0 49 3.35787 49 7.50001C49 11.6421 52.3579 15 56.5 15Z" fill="#F4F4F0" style="mix-blend-mode:multiply"/>
<path d="M99.5 283C103.642 283 107 279.642 107 275.5C107 271.358 103.642 268 99.5 268C95.3579 268 92 271.358 92 275.5C92 279.642 95.3579 283 99.5 283Z" fill="#F4F4F0" style="mix-blend-mode:multiply"/>
<path d="M52.5 329C56.6421 329 60 325.642 60 321.5C60 317.358 56.6421 314 52.5 314C48.3579 314 45 317.358 45 321.5C45 325.642 48.3579 329 52.5 329Z" fill="#F4F4F0" style="mix-blend-mode:multiply"/>
<path d="M7.5 401C11.6421 401 15 397.642 15 393.5C15 389.358 11.6421 386 7.5 386C3.35786 386 0 389.358 0 393.5C0 397.642 3.35786 401 7.5 401Z" fill="#F4F4F0" style="mix-blend-mode:multiply"/>
<path d="M143.5 237C147.642 237 151 233.642 151 229.5C151 225.358 147.642 222 143.5 222C139.358 222 136 225.358 136 229.5C136 233.642 139.358 237 143.5 237Z" fill="#F4F4F0" style="mix-blend-mode:multiply"/>
<path d="M189.5 193C193.642 193 197 189.642 197 185.5C197 181.358 193.642 178 189.5 178C185.358 178 182 181.358 182 185.5C182 189.642 185.358 193 189.5 193Z" fill="#F4F4F0" style="mix-blend-mode:multiply"/>
<path d="M233.5 148C237.642 148 241 144.642 241 140.5C241 136.358 237.642 133 233.5 133C229.358 133 226 136.358 226 140.5C226 144.642 229.358 148 233.5 148Z" fill="#F4F4F0" style="mix-blend-mode:multiply"/>
<path d="M190.5 104C194.642 104 198 100.642 198 96.5C198 92.3579 194.642 89 190.5 89C186.358 89 183 92.3579 183 96.5C183 100.642 186.358 104 190.5 104Z" fill="#F4F4F0" style="mix-blend-mode:multiply"/>
<path d="M143.5 60C147.642 60 151 56.6421 151 52.5C151 48.3579 147.642 45 143.5 45C139.358 45 136 48.3579 136 52.5C136 56.6421 139.358 60 143.5 60Z" fill="#F4F4F0" style="mix-blend-mode:multiply"/>
<path d="M99.5 15C103.642 15 107 11.6421 107 7.50001C107 3.35787 103.642 0 99.5 0C95.3579 0 92 3.35787 92 7.50001C92 11.6421 95.3579 15 99.5 15Z" fill="#F4F4F0" style="mix-blend-mode:multiply"/>
</svg>
