<svg width="58" height="58" viewBox="0 0 58 58" fill="none" xmlns="http://www.w3.org/2000/svg">
<g id="Frame" clip-path="url(#clip0_289_1355)">
<g id="Group">
<path id="Vector" d="M56.015 15.6959L41.2387 0.341883C41.1346 0.233791 41.0098 0.147803 40.8717 0.0890603C40.7336 0.0303177 40.585 2.72185e-05 40.435 0L18.412 0C15.9473 0 13.9421 2.0044 13.9421 4.46804V20.077H5.01703C3.17304 20.077 1.67285 21.5767 1.67285 23.4202V40.1568C1.67285 42.0003 3.17304 43.5 5.01703 43.5H13.9421V53.5398C13.9421 55.9991 15.9473 58 18.412 58H51.8569C54.3216 58 56.3267 56.0002 56.3267 53.5423V16.4694C56.3267 16.181 56.215 15.9038 56.015 15.6959ZM40.7114 3.01113L52.8414 15.6154H40.7114V3.01113ZM5.01703 41.2693C4.40304 41.2693 3.9037 40.7703 3.9037 40.1568V23.4202C3.9037 22.8068 4.40316 22.3077 5.01703 22.3077H35.1365C35.7505 22.3077 36.2498 22.8068 36.2498 23.4202V40.1568C36.2498 40.7703 35.7503 41.2693 35.1365 41.2693H5.01703ZM54.0959 53.5423C54.0959 54.7702 53.0914 55.7693 51.8568 55.7693H18.412C17.1773 55.7693 16.1729 54.7692 16.1729 53.5399V43.5H35.1365C36.9805 43.5 38.4806 42.0003 38.4806 40.1568V23.4202C38.4806 21.5767 36.9805 20.077 35.1365 20.077H16.1729V4.46804C16.1729 3.23429 17.1773 2.23073 18.412 2.23073H38.4805V16.7307C38.4805 17.3468 38.98 17.8461 39.5959 17.8461H54.0959V53.5423Z" fill="black"/>
<path id="Vector_2" d="M15.0075 28.3084C14.6372 27.827 14.1775 27.5143 13.6285 27.3706C13.2712 27.2747 12.5044 27.2268 11.328 27.2268H8.22363V36.8078H10.1581V33.1937H11.4195C12.2953 33.1937 12.9641 33.1479 13.426 33.0564C13.7658 32.9823 14.1002 32.8309 14.4292 32.6021C14.7581 32.3734 15.0293 32.0586 15.2429 31.6578C15.4564 31.257 15.5631 30.7624 15.5631 30.1743C15.563 29.4118 15.3778 28.7899 15.0075 28.3084ZM13.3507 30.9455C13.2048 31.159 13.0033 31.3158 12.7462 31.4161C12.489 31.5163 11.9794 31.5664 11.2169 31.5664H10.1581V28.8476H11.0927C11.7898 28.8476 12.2538 28.8694 12.4847 28.913C12.7984 28.9696 13.0577 29.1112 13.2624 29.3378C13.4672 29.5644 13.5696 29.852 13.5696 30.2004C13.5697 30.4836 13.4966 30.732 13.3507 30.9455ZM24.8629 29.8443C24.6538 29.2321 24.3488 28.7148 23.948 28.2921C23.5472 27.8695 23.0656 27.5754 22.5036 27.4098C22.0854 27.2878 21.4775 27.2268 20.6803 27.2268H17.1445V36.8078H20.7848C21.4994 36.8078 22.0701 36.7403 22.4971 36.6051C23.0679 36.4222 23.521 36.1673 23.8564 35.8405C24.3008 35.4091 24.6428 34.845 24.8825 34.1478C25.0786 33.577 25.1766 32.8973 25.1766 32.1088C25.1766 31.2112 25.0721 30.4565 24.8629 29.8443ZM22.9807 33.7787C22.8499 34.2079 22.6812 34.5161 22.4742 34.7034C22.2672 34.8907 22.0069 35.0236 21.6932 35.102C21.4536 35.1631 21.0636 35.1935 20.5234 35.1935H19.079V28.8476H19.9482C20.7368 28.8476 21.2663 28.8781 21.5363 28.9392C21.8979 29.0176 22.1964 29.1679 22.4317 29.3901C22.667 29.6124 22.8499 29.9217 22.9807 30.3181C23.1114 30.7146 23.1768 31.2832 23.1768 32.0239C23.1768 32.7646 23.1114 33.3494 22.9807 33.7787ZM33.3982 28.8476V27.2268H26.8301V36.8078H28.7646V32.7362H32.7643V31.1154H28.7646V28.8476H33.3982Z" fill="black"/>
</g>
</g>
<defs>
<clipPath id="clip0_289_1355">
<rect width="58" height="58" fill="white"/>
</clipPath>
</defs>
</svg>
