<svg width="27" height="27" viewBox="0 0 27 27" fill="none" xmlns="http://www.w3.org/2000/svg">
<g id="Frame">
<g id="Group">
<path id="Vector" d="M17.4947 14.6206L15.2334 16.8896C14.3164 17.8098 12.703 17.8296 11.7662 16.8896L9.50475 14.6206L1.38281 22.7689C1.68514 22.9087 2.01847 22.9921 2.37285 22.9921H24.6268C24.9811 22.9921 25.3144 22.9088 25.6166 22.769L17.4947 14.6206Z" fill="#554795"/>
<path id="Vector_2" d="M24.627 4.00781H2.37305C2.01867 4.00781 1.68534 4.09124 1.38312 4.23104L10.062 12.9387C10.0626 12.9393 10.0632 12.9394 10.0638 12.94C10.0642 12.9403 10.0644 12.9408 10.0645 12.9413L12.8865 15.7726C13.1862 16.0724 13.8139 16.0724 14.1136 15.7726L16.935 12.9418C16.935 12.9418 16.9357 12.9405 16.9363 12.94C16.9363 12.94 16.9375 12.9393 16.9381 12.9387L25.6168 4.23098C25.3146 4.09113 24.9813 4.00781 24.627 4.00781ZM0.252387 5.33735C0.0959765 5.65365 0 6.00476 0 6.38086V20.6191C0 20.9952 0.0958711 21.3463 0.252334 21.6626L8.38835 13.5003L0.252387 5.33735ZM26.7476 5.33725L18.6117 13.5003L26.7476 21.6628C26.904 21.3465 27 20.9953 27 20.6191V6.38086C27 6.00465 26.904 5.65355 26.7476 5.33725Z" fill="#554795"/>
</g>
</g>
</svg>
