<svg width="115" height="19" viewBox="0 0 115 19" fill="none" xmlns="http://www.w3.org/2000/svg">
<g id="IT MAXICO">
<path d="M0 0.314916H1.74626V18.6851H0V0.314916Z" fill="black"/>
<path d="M16.4764 0.314916V2.04696H11.1129V18.6851H9.36664V2.04696H4.00314V0.314916H16.4764Z" fill="black"/>
<path d="M40.6755 0.314916V18.6851H38.9293V3.09668L32.8174 13.8564H32.5679L26.456 3.09668V18.6851H24.7097V0.314916H26.8801L32.6926 10.5497L38.5052 0.314916H40.6755Z" fill="black"/>
<path d="M56.0377 18.6851L54.4162 14.1713H46.1339L44.5124 18.6851H42.6664L49.377 0.314916H51.1731L57.8837 18.6851H56.0377ZM46.7576 12.4392H53.7925L50.2751 2.59807L46.7576 12.4392Z" fill="black"/>
<path d="M71.8509 18.6851H69.8552L65.1153 10.8384L60.3755 18.6851H58.3798L64.1174 9.21133L58.7539 0.314916H60.7247L65.1153 7.55801L69.5059 0.314916H71.4767L66.1132 9.21133L71.8509 18.6851Z" fill="black"/>
<path d="M74.098 0.314916H75.8443V18.6851H74.098V0.314916Z" fill="black"/>
<path d="M87.7555 19C85.1111 19 82.9241 18.0815 81.1945 16.2445C79.4649 14.4075 78.6001 12.1593 78.6001 9.5C78.6001 6.8407 79.4649 4.59254 81.1945 2.75552C82.9241 0.918508 85.1111 0 87.7555 0C89.3687 0 90.8488 0.411142 92.1959 1.23343C93.5431 2.03821 94.5825 3.13168 95.3143 4.51381L93.7676 5.45856C93.2187 4.33886 92.4038 3.44659 91.3228 2.78177C90.2418 2.11694 89.0527 1.78453 87.7555 1.78453C85.5768 1.78453 83.7973 2.52808 82.4169 4.01519C81.0365 5.5023 80.3463 7.33057 80.3463 9.5C80.3463 11.6694 81.0365 13.4977 82.4169 14.9848C83.7973 16.4719 85.5768 17.2155 87.7555 17.2155C89.0527 17.2155 90.2418 16.8831 91.3228 16.2182C92.4038 15.5534 93.2187 14.6611 93.7676 13.5414L95.3143 14.4599C94.5991 15.8421 93.5597 16.9443 92.1959 17.7666C90.8488 18.5889 89.3687 19 87.7555 19Z" fill="black"/>
<path d="M112.381 16.2445C110.634 18.0815 108.497 19 105.969 19C103.441 19 101.304 18.0815 99.5581 16.2445C97.8118 14.39 96.9387 12.1418 96.9387 9.5C96.9387 6.85819 97.8118 4.61878 99.5581 2.78177C101.304 0.927256 103.441 0 105.969 0C108.497 0 110.634 0.927256 112.381 2.78177C114.127 4.61878 115 6.85819 115 9.5C115 12.1418 114.127 14.39 112.381 16.2445ZM100.78 14.9848C102.177 16.4719 103.907 17.2155 105.969 17.2155C108.032 17.2155 109.761 16.4719 111.158 14.9848C112.555 13.4802 113.254 11.6519 113.254 9.5C113.254 7.34807 112.555 5.52854 111.158 4.04144C109.761 2.53683 108.032 1.78453 105.969 1.78453C103.907 1.78453 102.177 2.53683 100.78 4.04144C99.3835 5.52854 98.685 7.34807 98.685 9.5C98.685 11.6519 99.3835 13.4802 100.78 14.9848Z" fill="black"/>
</g>
</svg>
