<svg width="26" height="27" viewBox="0 0 26 27" fill="none" xmlns="http://www.w3.org/2000/svg">
<g id="Vector">
<path d="M13.1146 0.760254H13.1081C6.00163 0.760254 0.222656 6.5199 0.222656 13.6023C0.222656 16.4115 1.13131 19.0152 2.67634 21.1293L1.07009 25.9001L6.02419 24.3221C8.06221 25.6673 10.4933 26.4443 13.1146 26.4443C20.2211 26.4443 26.0001 20.683 26.0001 13.6023C26.0001 6.5215 20.2211 0.760254 13.1146 0.760254ZM20.6142 18.8948C20.3033 19.7696 19.0692 20.4952 18.0848 20.7071C17.4114 20.85 16.5317 20.964 13.5705 19.7408C9.78285 18.1772 7.34367 14.3423 7.15356 14.0935C6.97151 13.8447 5.62302 12.0628 5.62302 10.22C5.62302 8.37717 6.56229 7.47984 6.94089 7.09458C7.25183 6.77834 7.76577 6.63387 8.25876 6.63387C8.41826 6.63387 8.56165 6.6419 8.69054 6.64832C9.06914 6.66437 9.25925 6.68684 9.50897 7.28239C9.81991 8.02884 10.5771 9.87166 10.6673 10.0611C10.7592 10.2505 10.851 10.5073 10.7221 10.7562C10.6013 11.013 10.495 11.127 10.3048 11.3453C10.1147 11.5636 9.9343 11.7305 9.74419 11.9649C9.57019 12.1688 9.37364 12.3871 9.59275 12.7643C9.81185 13.1335 10.5691 14.3648 11.6839 15.3536C13.1226 16.6298 14.2891 17.0375 14.7063 17.2109C15.0173 17.3393 15.3878 17.3088 15.615 17.068C15.9034 16.7582 16.2594 16.2445 16.6219 15.7389C16.8797 15.3761 17.2051 15.3311 17.5467 15.4595C17.8947 15.5799 19.7362 16.4869 20.1148 16.6747C20.4934 16.8641 20.7431 16.954 20.8349 17.113C20.9251 17.2719 20.9251 18.0183 20.6142 18.8948Z" fill="#FFDD2D"/>
<path d="M13.1146 0.760254H13.1081C6.00163 0.760254 0.222656 6.5199 0.222656 13.6023C0.222656 16.4115 1.13131 19.0152 2.67634 21.1293L1.07009 25.9001L6.02419 24.3221C8.06221 25.6673 10.4933 26.4443 13.1146 26.4443C20.2211 26.4443 26.0001 20.683 26.0001 13.6023C26.0001 6.5215 20.2211 0.760254 13.1146 0.760254ZM20.6142 18.8948C20.3033 19.7696 19.0692 20.4952 18.0848 20.7071C17.4114 20.85 16.5317 20.964 13.5705 19.7408C9.78285 18.1772 7.34367 14.3423 7.15356 14.0935C6.97151 13.8447 5.62302 12.0628 5.62302 10.22C5.62302 8.37717 6.56229 7.47984 6.94089 7.09458C7.25183 6.77834 7.76577 6.63387 8.25876 6.63387C8.41826 6.63387 8.56165 6.6419 8.69054 6.64832C9.06914 6.66437 9.25925 6.68684 9.50897 7.28239C9.81991 8.02884 10.5771 9.87166 10.6673 10.0611C10.7592 10.2505 10.851 10.5073 10.7221 10.7562C10.6013 11.013 10.495 11.127 10.3048 11.3453C10.1147 11.5636 9.9343 11.7305 9.74419 11.9649C9.57019 12.1688 9.37364 12.3871 9.59275 12.7643C9.81185 13.1335 10.5691 14.3648 11.6839 15.3536C13.1226 16.6298 14.2891 17.0375 14.7063 17.2109C15.0173 17.3393 15.3878 17.3088 15.615 17.068C15.9034 16.7582 16.2594 16.2445 16.6219 15.7389C16.8797 15.3761 17.2051 15.3311 17.5467 15.4595C17.8947 15.5799 19.7362 16.4869 20.1148 16.6747C20.4934 16.8641 20.7431 16.954 20.8349 17.113C20.9251 17.2719 20.9251 18.0183 20.6142 18.8948Z" fill="white"/>
</g>
</svg>
