<svg width="25" height="25" viewBox="0 0 25 25" fill="none" xmlns="http://www.w3.org/2000/svg">
<g id="Frame" clip-path="url(#clip0_801_1645)">
<g id="Group">
<g id="Vector">
<path d="M19.0121 5.25391C18.6903 5.25391 18.4284 5.51582 18.4284 5.83766C18.4284 6.15949 18.6903 6.42141 19.0121 6.42141C19.334 6.42141 19.5959 6.15954 19.5959 5.83766C19.5959 5.51577 19.334 5.25391 19.0121 5.25391ZM12.0226 7.65207C9.16898 7.65207 6.84741 9.97365 6.84741 12.8272C6.84741 15.6808 9.16898 18.0024 12.0226 18.0024C14.8762 18.0024 17.1977 15.6808 17.1977 12.8273C17.1977 9.97369 14.8762 7.65207 12.0226 7.65207Z" fill="url(#paint0_linear_801_1645)"/>
<path d="M19.0121 5.25391C18.6903 5.25391 18.4284 5.51582 18.4284 5.83766C18.4284 6.15949 18.6903 6.42141 19.0121 6.42141C19.334 6.42141 19.5959 6.15954 19.5959 5.83766C19.5959 5.51577 19.334 5.25391 19.0121 5.25391ZM12.0226 7.65207C9.16898 7.65207 6.84741 9.97365 6.84741 12.8272C6.84741 15.6808 9.16898 18.0024 12.0226 18.0024C14.8762 18.0024 17.1977 15.6808 17.1977 12.8273C17.1977 9.97369 14.8762 7.65207 12.0226 7.65207Z" fill="white"/>
</g>
<g id="Vector_2">
<path d="M17.4535 0.804688H6.59159C2.95698 0.804688 0 3.76167 0 7.39633V18.2582C0 21.8928 2.95698 24.8498 6.59159 24.8498H17.4535C21.0881 24.8498 24.0451 21.8928 24.0451 18.2582V7.39633C24.0451 3.76167 21.0881 0.804688 17.4535 0.804688ZM12.0225 19.4223C8.38596 19.4223 5.42747 16.4638 5.42747 12.8272C5.42747 9.19064 8.386 6.23221 12.0225 6.23221C15.6591 6.23221 18.6177 9.19069 18.6177 12.8272C18.6177 16.4638 15.6591 19.4223 12.0225 19.4223ZM19.0121 7.84144C17.9072 7.84144 17.0084 6.94257 17.0084 5.83772C17.0084 4.73286 17.9072 3.83394 19.0121 3.83394C20.1169 3.83394 21.0158 4.73282 21.0158 5.83767C21.0158 6.94252 20.1169 7.84144 19.0121 7.84144Z" fill="url(#paint1_linear_801_1645)"/>
<path d="M17.4535 0.804688H6.59159C2.95698 0.804688 0 3.76167 0 7.39633V18.2582C0 21.8928 2.95698 24.8498 6.59159 24.8498H17.4535C21.0881 24.8498 24.0451 21.8928 24.0451 18.2582V7.39633C24.0451 3.76167 21.0881 0.804688 17.4535 0.804688ZM12.0225 19.4223C8.38596 19.4223 5.42747 16.4638 5.42747 12.8272C5.42747 9.19064 8.386 6.23221 12.0225 6.23221C15.6591 6.23221 18.6177 9.19069 18.6177 12.8272C18.6177 16.4638 15.6591 19.4223 12.0225 19.4223ZM19.0121 7.84144C17.9072 7.84144 17.0084 6.94257 17.0084 5.83772C17.0084 4.73286 17.9072 3.83394 19.0121 3.83394C20.1169 3.83394 21.0158 4.73282 21.0158 5.83767C21.0158 6.94252 20.1169 7.84144 19.0121 7.84144Z" fill="white"/>
</g>
</g>
</g>
<defs>
<linearGradient id="paint0_linear_801_1645" x1="13.2216" y1="5.25391" x2="13.2216" y2="18.0024" gradientUnits="userSpaceOnUse">
<stop stop-color="#CD3CAD"/>
<stop offset="1" stop-color="#5938EE"/>
</linearGradient>
<linearGradient id="paint1_linear_801_1645" x1="12.0225" y1="0.804687" x2="12.0225" y2="24.8498" gradientUnits="userSpaceOnUse">
<stop stop-color="#CD3CAD"/>
<stop offset="1" stop-color="#5938EE"/>
</linearGradient>
<clipPath id="clip0_801_1645">
<rect width="24.0451" height="24.0451" fill="white" transform="translate(0 0.804688)"/>
</clipPath>
</defs>
</svg>
