<svg width="27" height="27" viewBox="0 0 27 27" fill="none" xmlns="http://www.w3.org/2000/svg">
<g id="Group 11536">
<g id="Vector">
<path d="M13.5027 26.3891C20.621 26.3891 26.3914 20.6395 26.3914 13.5471C26.3914 6.45464 20.621 0.705078 13.5027 0.705078C6.38448 0.705078 0.614014 6.45464 0.614014 13.5471C0.614014 20.6395 6.38448 26.3891 13.5027 26.3891Z" fill="#FFDD2D"/>
<path d="M13.5027 26.3891C20.621 26.3891 26.3914 20.6395 26.3914 13.5471C26.3914 6.45464 20.621 0.705078 13.5027 0.705078C6.38448 0.705078 0.614014 6.45464 0.614014 13.5471C0.614014 20.6395 6.38448 26.3891 13.5027 26.3891Z" fill="white"/>
</g>
<path id="Vector_2" fill-rule="evenodd" clip-rule="evenodd" d="M6.45101 13.4121C10.2083 11.781 12.7138 10.7057 13.9674 10.1862C17.5467 8.70283 18.2905 8.44514 18.7752 8.43661C18.8819 8.43476 19.1203 8.46109 19.2747 8.58595C19.5037 8.77116 19.5051 9.17317 19.4796 9.43924C19.2856 11.4699 18.4464 16.3977 18.0194 18.672C17.8387 19.6343 17.4829 19.9571 17.1386 19.9886C16.3901 20.0572 15.8218 19.4957 15.0968 19.0223C13.9625 18.2814 13.3216 17.8202 12.2205 17.0972C10.948 16.2617 11.7729 15.8025 12.4981 15.052C12.6879 14.8556 15.9856 11.8668 16.0495 11.5957C16.0575 11.5618 16.0649 11.4354 15.9895 11.3687C15.9141 11.3019 15.8029 11.3247 15.7227 11.3429C15.6089 11.3686 13.7967 12.5621 10.2862 14.9232C9.77177 15.2751 9.30586 15.4466 8.88844 15.4376C8.42822 15.4277 7.54303 15.1784 6.88495 14.9652C6.07779 14.7038 5.43628 14.5656 5.49216 14.1216C5.52126 13.8903 5.84086 13.6538 6.45101 13.4121Z" fill="#554795"/>
</g>
</svg>
