<svg width="31" height="32" viewBox="0 0 31 32" fill="none" xmlns="http://www.w3.org/2000/svg">
<ellipse cx="15.5" cy="16" rx="15.5" ry="16" fill="#E53247"/>
<ellipse cx="15.5" cy="16" rx="15.5" ry="16" fill="url(#paint0_linear_812_2160)" style="mix-blend-mode:soft-light"/>
<path d="M30.75 16C30.75 24.706 23.9149 31.75 15.5 31.75C7.08508 31.75 0.25 24.706 0.25 16C0.25 7.29397 7.08508 0.25 15.5 0.25C23.9149 0.25 30.75 7.29397 30.75 16Z" stroke="url(#paint1_linear_812_2160)" stroke-opacity="0.8" stroke-width="0.5" style="mix-blend-mode:soft-light"/>
<path fill-rule="evenodd" clip-rule="evenodd" d="M21.1729 13.0571C21.5407 13.0978 23.2271 13.3872 22.635 15.2766C22.5826 15.4443 22.5719 15.6223 22.6039 15.7951C22.6359 15.9679 22.7096 16.1302 22.8186 16.2681C23.1401 16.6735 23.4113 17.3538 22.6435 18.1471C22.5273 18.2682 22.4403 18.4142 22.3892 18.5741C22.3381 18.7339 22.3243 18.9033 22.3486 19.0693C22.4046 19.4566 22.362 19.9836 21.8915 20.4031C21.7504 20.5332 21.6447 20.697 21.5842 20.8791C21.5237 21.0612 21.5104 21.2558 21.5456 21.4444C21.669 22.1709 21.2939 23.2049 18.0574 23.0548L13.8446 22.9545C13.8081 22.9533 13.7722 22.9508 13.7358 22.9466C13.3887 22.9034 11.574 22.6402 11.7114 21.8365L11.7041 16.1951C11.7041 16.0468 11.7334 15.8999 11.7905 15.7629L14.1698 11.1045C14.2057 11.0341 14.2245 10.9562 14.2245 10.8771V8.6929C14.2229 8.49836 14.2726 8.30683 14.3687 8.13766C14.4648 7.96848 14.6038 7.82764 14.7716 7.72936C15.12 7.52936 15.6112 7.42419 16.1534 7.82419C17.2191 8.60901 17.2446 9.04001 17.2446 9.04001C17.2446 9.04001 17.7267 10.4619 17.5237 11.7562C17.4986 11.9161 17.5086 12.0796 17.5527 12.2353C17.5969 12.3911 17.6742 12.5355 17.7795 12.6585C17.8847 12.7815 18.0153 12.8803 18.1624 12.948C18.3094 13.0158 18.4694 13.0509 18.6313 13.051H21.0556C21.0948 13.0509 21.134 13.0529 21.1729 13.0571ZM8.19044 15.2784H10.185C10.6008 15.2784 10.9412 15.597 10.9412 15.9854V22.0517C10.9412 22.4408 10.6008 22.7587 10.185 22.7587H8.19044C7.77402 22.7587 7.43359 22.4408 7.43359 22.0517V15.9854C7.43359 15.597 7.77402 15.2784 8.19044 15.2784Z" fill="white"/>
<defs>
<linearGradient id="paint0_linear_812_2160" x1="-7.11809" y1="-4.50909" x2="33.4528" y2="28.3125" gradientUnits="userSpaceOnUse">
<stop stop-color="white"/>
<stop offset="1" stop-opacity="0"/>
</linearGradient>
<linearGradient id="paint1_linear_812_2160" x1="0.581069" y1="0.581818" x2="26.6424" y2="28.2346" gradientUnits="userSpaceOnUse">
<stop stop-color="white"/>
<stop offset="1" stop-color="white" stop-opacity="0"/>
</linearGradient>
</defs>
</svg>
