<svg width="198" height="198" viewBox="0 0 198 198" fill="none" xmlns="http://www.w3.org/2000/svg">
<g id="Frame" opacity="0.05">
<g id="Group">
<path id="Vector" d="M24.4617 153.14H109.265C112.132 153.14 114.743 155.934 114.743 159.898V161.504C114.743 165.466 112.13 168.258 109.265 168.258H24.4617C21.6083 168.258 19.0079 165.464 19.0079 161.504V159.898C19.0101 155.934 21.6083 153.14 24.4617 153.14ZM66.4949 81.1097L89.8105 93.0513C93.5483 94.9653 97.6953 94.7717 101.141 93.1195L96.8571 117.605C93.2381 114.167 88.7435 110.706 83.1533 107.362C70.0699 99.5127 66.4245 92.1669 65.6347 86.9991C65.0715 83.3229 65.9537 82.3241 66.4949 81.1097ZM67.3199 43.0013C75.5699 43.0013 82.7551 46.4487 87.1287 51.6297L101.578 75.2797C104.775 80.5399 103.752 84.3657 101.449 86.8517C99.1583 89.3267 95.3435 90.2771 92.0897 88.6051L65.8613 75.1873C65.3045 74.9065 64.6632 74.8426 64.0619 75.0081C63.4606 75.1735 62.9423 75.5565 62.6075 76.0827C62.6075 76.0827 59.6595 80.9161 60.6913 87.7449C61.7231 94.5627 66.6511 103.272 80.5859 111.637C87.5159 115.784 92.5011 119.999 96.1883 124.056C96.3599 124.399 96.6349 124.652 96.9363 124.868C101.116 129.67 103.468 134.207 104.713 138.048C106.26 142.745 106.251 146.181 106.066 148.155H42.8779V63.8331C42.8867 52.4547 53.5699 43.0013 67.3199 43.0013ZM97.0397 40.7551H101.886C104.83 40.7551 106.674 42.5525 106.674 44.1695V56.3025C106.672 56.6291 106.734 56.9529 106.858 57.2553C106.981 57.5578 107.163 57.8329 107.393 58.065C107.623 58.2971 107.896 58.4816 108.197 58.608C108.499 58.7344 108.822 58.8002 109.149 58.8017H121.592C122.98 58.8017 124.102 57.6797 124.093 56.3025V44.1695C124.093 43.3665 124.445 42.6317 125.319 41.9563C126.19 41.2787 127.609 40.7551 129.408 40.7551C131.208 40.7551 132.605 41.2787 133.487 41.9563C134.358 42.6317 134.704 43.3665 134.704 44.1695V56.3025C134.704 57.6775 135.817 58.8017 137.201 58.8017H149.644C150.306 58.7999 150.941 58.5361 151.41 58.0679C151.879 57.5996 152.143 56.965 152.145 56.3025V44.1695C152.145 43.3665 152.475 42.6559 153.358 41.9805C154.251 41.3029 155.687 40.7529 157.542 40.7529C159.386 40.7529 160.829 41.3029 161.711 41.9805C162.595 42.6559 162.95 43.3643 162.95 44.1695V76.7339C162.95 79.5763 162.219 80.3441 160.604 81.4551C159.126 82.4847 156.695 83.4241 154.081 84.9839H123.105C119.634 84.8233 119.634 90.1297 123.105 89.9691H152.647L162.857 148.157H127.195C123.818 148.097 123.818 153.206 127.195 153.142H172.115C174.977 153.142 177.58 155.936 177.58 159.9V161.506C177.58 165.469 174.975 168.26 172.115 168.26H117.79C119.057 166.235 119.729 163.895 119.728 161.506V159.9C119.728 154.262 116.094 149.292 111.032 148.337C111.212 145.704 111.1 141.508 109.459 136.512C108.049 132.172 105.483 127.219 101.132 122.098L106.379 92.1449C107.686 85.2127 109.85 79.2749 105.829 72.6881L92.0237 50.0699L97.0397 40.7551ZM64.4181 27.1305C75.8647 27.1305 85.7097 32.0343 92.1799 39.2547L88.5609 45.9691C83.1863 41.0301 75.6579 38.0051 67.3177 38.0051C51.2511 38.0051 37.8927 49.3725 37.8927 63.8331V148.157H28.7363V58.4475C28.7385 41.2237 44.4597 27.1305 64.4181 27.1305ZM64.4181 22.1453C42.0881 22.1453 23.7533 38.2097 23.7533 58.4453V148.196C18.1499 148.621 14.0029 153.881 14.0029 159.896V161.502C14.0029 167.776 18.5063 173.246 24.4617 173.246H172.115C178.083 173.246 182.574 167.776 182.574 161.502V159.896C182.574 153.617 178.083 148.152 172.115 148.152H167.886C167.886 148.023 167.886 147.913 167.86 147.774L157.513 88.7943C159.438 87.7647 161.458 86.9067 163.427 85.5405C165.867 83.8553 167.93 80.8897 167.93 76.7295V44.1717C167.93 41.7055 166.65 39.4725 164.747 38.0183C162.844 36.5619 160.334 35.7721 157.542 35.7721C154.746 35.7721 152.222 36.5641 150.324 38.0183C148.421 39.4725 147.16 41.7077 147.16 44.1717V53.8187H139.7V44.1717C139.7 41.7055 138.428 39.4725 136.536 38.0183C134.647 36.5509 132.172 35.7721 129.408 35.7721C126.645 35.7721 124.148 36.5509 122.258 38.0183C120.38 39.4725 119.108 41.7077 119.108 44.1717V53.8187H111.657V44.1717C111.657 39.2547 106.995 35.7699 101.886 35.7699H96.1883C88.7083 27.4165 77.2529 22.1453 64.4181 22.1453Z" fill="#3B0076"/>
</g>
</g>
</svg>
