<svg width="151" height="151" viewBox="0 0 151 151" fill="none" xmlns="http://www.w3.org/2000/svg">
<g id="Frame" opacity="0.05" clip-path="url(#clip0_519_2514)">
<g id="Group">
<path id="Vector" d="M145.903 93.7219C145.26 88.4611 143.174 84.338 138.474 81.4667C135.069 79.3816 132.312 79.0572 119.271 75.8104V75.1288H132.288C135.444 75.1288 138.017 72.5807 138.056 69.4333C139.699 41.572 139.946 38.3801 139.834 37.0632C139.834 35.8414 138.844 34.8513 137.622 34.8513C137.332 34.8513 137.044 34.9085 136.776 35.0196C136.507 35.1308 136.264 35.2937 136.058 35.4991C135.853 35.7045 135.69 35.9484 135.579 36.2167C135.468 36.4851 135.41 36.7728 135.41 37.0632V39.1616C133.555 70.6277 133.632 69.2327 133.632 69.3601C133.632 70.0889 133.017 70.7047 132.288 70.7047H119.271V70.1322C119.985 69.6554 125.271 67.3246 129.109 61.1059C133.361 54.2457 132.768 48.4472 132.776 42.8322C132.776 40.5823 131.021 38.7526 128.78 38.6667H128.78C112.376 38.0397 103.959 28.7417 101.77 25.9066C101.439 25.4774 101.018 25.1267 100.536 24.8796C100.054 24.6325 99.5228 24.4952 98.9814 24.4775C98.4392 24.4596 97.8998 24.5612 97.4012 24.7749C96.9026 24.9885 96.4571 25.3092 96.0961 25.7141C92.6538 29.589 88.7603 30.815 86.7456 31.2008C84.9204 31.5506 83.5953 33.1555 83.5953 35.0174C83.6032 48.9203 83.5782 48.1544 83.6153 49.1323C83.6746 57.7668 89.4858 66.4451 97.0139 70.0889V70.7038H83.81C83.0812 70.7038 82.4657 70.088 82.4657 69.3593C82.4657 69.2304 82.5398 70.5705 80.6838 39.0956C80.6812 39.055 80.6776 39.0145 80.6732 38.974C80.6469 38.7443 78.2035 15.9575 90.9972 13.146C91.3153 13.0761 91.614 12.9368 91.872 12.7382C92.13 12.5395 92.341 12.2863 92.4898 11.9967C92.5432 11.8934 97.9999 1.70477 115.602 5.13264C122.608 6.46864 133.092 14.8117 135.061 27.0905C135.254 28.2964 136.387 29.1154 137.595 28.9243C137.882 28.8783 138.157 28.7763 138.404 28.624C138.652 28.4718 138.867 28.2723 139.037 28.037C139.207 27.8016 139.33 27.5351 139.397 27.2525C139.464 26.9699 139.475 26.6768 139.429 26.39C138.577 20.5739 135.682 14.4342 131.304 9.77501L131.147 9.6069C126.754 4.95481 120.217 1.52428 116.446 0.790215C110.513 -0.3647 101.944 -0.800594 94.8091 3.68251C91.7366 5.61248 89.9453 7.83944 89.1162 9.06012C82.5893 10.9134 78.3135 16.7334 76.7233 25.9609C75.5867 32.5548 76.1913 38.6744 76.2715 39.4141C78.3433 71.4096 77.6329 70.2122 78.8323 72.2619C72.5466 71.2512 66.1489 73.0479 61.3007 77.6309L59.3672 77.1493L53.9875 74.5747V70.0851C64.9432 64.6497 66.6963 53.7762 66.8021 53.5762C67.1952 51.8046 67.3944 49.9956 67.3964 48.1809V48.1594C71.3908 47.2891 74.3601 44.1198 74.3601 40.3528C74.3601 38.7924 73.849 37.3355 72.9681 36.1006C73.0043 30.2833 73.1689 26.8613 71.9232 22.2735C71.6043 21.4616 70.5603 16.3232 65.9303 10.8002L65.9085 10.7736C57.3517 0.59645 42.5938 -3.28826 29.3562 3.16227C19.312 8.17063 12.6418 18.5006 12.6418 30.1665C12.6421 32.108 12.6412 35.8656 12.6427 36.1009C9.3543 40.7097 12.162 46.8417 18.2158 48.16C18.4178 58.1894 23.8126 66.1033 31.7306 70.1376V74.5242L26.13 77.2051C20.0284 78.9133 15.2943 79.3598 11.6706 82.0468C7.2813 85.398 5.74328 88.4342 5.09681 93.744C-0.15044 141.207 -0.0280473 138.325 0.00793322 140.438C-0.0560648 146.075 3.88409 150.993 10.4036 150.993L29.7402 150.992C30.962 150.992 31.9521 150.002 31.9521 148.781C31.9521 147.559 30.962 146.569 29.7402 146.569H21.429L23.6223 105.082C23.6533 104.496 23.4502 103.922 23.0579 103.486C22.6655 103.05 22.116 102.788 21.5302 102.757C20.3148 102.689 19.269 103.629 19.2047 104.849L18.7434 113.575L7.46061 112.391L7.49747 112.062C9.77457 94.0307 8.95616 91.2985 11.9995 87.6798L12.0248 87.6494C15.7305 83.2737 21.6059 83.1769 26.1551 81.7572L32.9548 90.4615C34.5807 92.5437 37.6686 92.73 39.5334 90.8517L40.5939 89.7829V100.487C40.5939 101.709 41.584 102.699 42.8058 102.699C44.0277 102.699 45.0177 101.709 45.0177 100.487V89.7832L46.078 90.8517C46.5172 91.294 47.0455 91.6378 47.6278 91.8602C48.2101 92.0826 48.833 92.1786 49.4552 92.1417C50.0775 92.1048 50.6847 91.9359 51.2367 91.6463C51.7886 91.3567 52.2726 90.9529 52.6565 90.4618L55.7647 86.4833C54.4759 90.6349 54.9283 93.7537 54.833 95.5171C50.5929 99.4897 52.7553 106.006 58.7437 107.335C59.5963 112.326 62.6252 116.801 67.4132 119.422V122.112C59.6102 124.214 53.4734 124.3 50.6964 130.917C50.5884 131.177 50.4937 131.442 50.4127 131.711C50.3041 132.06 50.2115 132.413 50.1352 132.771C49.7946 134.42 49.7813 135.463 48.4819 146.569H40.0625C39.772 146.569 39.4843 146.626 39.2159 146.737C38.9476 146.848 38.7037 147.011 38.4983 147.216C38.2929 147.422 38.13 147.666 38.0188 147.934C37.9077 148.202 37.8505 148.49 37.8505 148.781C37.8505 150.002 38.8406 150.992 40.0625 150.992H50.4832L50.4882 150.993L50.4944 150.992H100.509L100.515 150.993L100.52 150.992H109.882C111.104 150.992 112.094 150.002 112.094 148.781C112.094 147.559 111.104 146.569 109.882 146.569H102.521C101.32 137.747 101.434 133.957 100.432 131.24C99.1011 127.608 95.8611 125.18 92.3512 124.293L83.5897 122.112V119.383C88.1969 116.857 91.3485 112.376 92.1887 107.335C92.2191 107.318 97.3386 106.383 98.2022 101.553C98.4481 100.207 98.2612 98.7851 97.5834 97.4709C101.795 96.6142 105.912 93.5016 108.138 91.5725C119.411 101.351 129.535 100.126 130.361 83.1298C131.983 83.6332 139.647 84.8067 141.179 92.2166C141.294 92.7722 141.426 93.5605 141.509 94.2347L143.54 112.385L132.345 113.559L131.885 104.848C131.821 103.628 130.765 102.685 129.559 102.756C128.974 102.787 128.424 103.049 128.032 103.485C127.639 103.921 127.436 104.496 127.467 105.081L129.66 146.568H120.203C118.981 146.568 117.991 147.558 117.991 148.78C117.991 150.002 118.981 150.992 120.203 150.992L140.597 150.992C143.576 150.992 146.134 149.995 147.994 148.11C149.907 146.172 151.027 143.302 150.993 140.431C151.022 138.567 151.174 141.192 145.903 93.7219ZM18.3739 117.984L16.9379 146.569H10.4033C6.55638 146.569 4.51611 144.051 4.43117 140.396C4.40463 138.83 4.48868 139.36 6.96868 116.787L18.3739 117.984ZM67.3961 43.5424V37.1647C70.7741 38.5582 70.7747 42.1486 67.3961 43.5424ZM18.2152 43.543C14.8351 42.1492 14.8348 38.5579 18.2152 37.1641V43.543ZM20.1272 32.3156C19.0844 32.3436 18.052 32.5307 17.0656 32.8703C17.0936 30.5555 16.9229 28.4583 17.523 25.3177C17.7793 24.632 18.7541 17.1065 25.7133 10.922C26.645 10.2006 28.175 8.59119 32.1208 6.74233C40.6234 2.85939 51.025 3.47076 59.8971 10.9223C65.8973 16.2527 67.2097 22.2986 67.6503 23.419C68.8849 27.9717 68.4522 31.1881 68.5451 32.8706C67.5592 32.5308 66.5272 32.3438 65.4847 32.3159C64.9238 31.9988 64.4047 31.5597 63.9962 31.11C60.9804 27.6352 63.5385 24.9443 60.3035 22.2446C58.0226 20.3412 55.8384 21.0685 51.8018 21.5964C33.002 23.6234 29.2297 18.9721 25.3081 22.2446C24.1514 23.2099 23.4233 24.6057 23.3737 26.3372C23.1965 31.0339 20.3189 32.0994 20.1272 32.3156ZM22.6391 48.1815V35.9673C24.3133 34.7608 25.5446 33.7828 26.6462 31.4456C27.2782 30.1099 27.7397 28.4256 27.802 26.3369C27.8164 25.7642 28.3549 25.3265 28.9415 25.4203C52.2988 28.53 57.738 23.5151 57.8094 26.3358C57.9498 31.281 60.6681 34.0008 60.7117 34.0739C61.5236 34.9705 62.0445 35.2987 62.9714 35.967C62.9717 38.2674 62.9708 45.959 62.9723 46.2032C62.826 46.842 64.5436 59.3971 52.0543 66.1063H52.0546C52.0233 66.1192 48.801 67.9705 44.1409 68.2984C42.9701 68.3751 41.8175 68.3247 41.8473 68.3253C30.9034 67.8148 22.6391 58.7382 22.6391 48.1815ZM36.4193 87.7102L30.4633 80.0859L33.4594 78.652L39.6366 84.4681L36.4193 87.7102ZM42.8058 81.3759L36.1541 75.1132V71.8572C40.5647 73.0977 45.2021 73.0458 49.5106 71.8419V75.0628L42.8058 81.3759ZM49.1923 87.7102L45.9753 84.4681L52.1879 78.6183L55.1772 80.0493L49.1923 87.7102ZM58.5057 102.558C56.4872 101.405 56.6598 99.3174 58.5057 98.2678V102.558ZM93.4769 61.9774C86.4781 54.2009 88.025 47.1858 88.0185 35.4568C90.5546 34.9044 94.8867 33.3956 98.8138 29.2929C101.957 33.0856 111.332 42.3385 128.352 43.0779C128.342 48.9571 128.368 47.9078 128.332 49.0949L128.331 49.0881C128.133 49.8826 128.539 57.1881 121.102 63.6667L120.847 63.8749C113.925 69.4669 104.3 69.7096 97.2555 65.1289C96.8101 64.8405 93.9771 62.4563 93.4769 61.9774ZM85.5341 127.155L85.6285 127.179C90.0965 128.399 91.5998 128.401 93.5247 129.554C97.5548 131.969 96.4179 134.948 98.0444 146.569H92.1569L91.895 141.795C91.828 140.575 90.7852 139.639 89.5654 139.708C89.2754 139.723 88.9913 139.796 88.7295 139.922C88.4676 140.048 88.2331 140.224 88.0393 140.44C87.8455 140.656 87.6962 140.909 87.5999 141.183C87.5036 141.457 87.4623 141.747 87.4782 142.037L87.7268 146.569H63.3365L63.5851 142.037C63.6011 141.747 63.5598 141.457 63.4636 141.183C63.3673 140.909 63.2181 140.656 63.0242 140.44C62.8304 140.224 62.5958 140.048 62.334 139.922C62.0721 139.796 61.788 139.723 61.498 139.708C61.2078 139.691 60.9173 139.732 60.6431 139.828C60.3688 139.924 60.1162 140.074 59.8998 140.267C59.6834 140.461 59.5074 140.696 59.3818 140.958C59.2563 141.22 59.1838 141.505 59.1684 141.795L58.9065 146.569H52.9591C54.4246 133.996 53.8043 131.755 57.4785 129.554C59.3144 128.453 60.5076 128.47 65.4685 127.155C67.9957 130.014 71.6439 131.683 75.5014 131.683C79.359 131.683 83.0072 130.015 85.5341 127.155ZM71.8364 121.064C72.7648 121.266 73.7084 121.39 74.6574 121.434C74.7111 121.437 74.7638 121.438 74.8172 121.44L74.975 121.445C76.5735 121.488 78.126 121.308 79.1658 121.048C79.2753 121.898 78.6807 124.37 80.5302 125.71C79.0471 126.719 77.2948 127.259 75.501 127.259C73.7073 127.259 71.955 126.719 70.4718 125.71C72.316 124.374 71.7312 121.876 71.8364 121.064ZM87.9793 105.213C87.9707 105.367 87.9597 105.521 87.9463 105.675C87.5251 110.196 84.6968 114.016 80.7873 115.847C80.6877 115.859 74.0183 119.428 67.5975 114.25C67.5265 114.152 63.7258 111.491 63.0342 106.123C62.8463 104.681 62.9667 103.53 62.9295 97.3836C72.6416 99.3926 79.4109 95.492 82.3728 91.6241C84.3367 94.5158 86.5725 95.7583 88.002 96.2853C87.9979 105.755 88.0156 104.555 87.9793 105.213ZM91.675 93.3907C90.9318 92.4764 90.0555 92.3062 89.7049 92.1948C88.7302 91.883 86.8583 90.9051 85.2693 87.8559C84.027 85.4729 80.6121 85.5623 79.472 87.9606C78.1782 90.6812 72.2744 95.4135 62.2825 92.6808C61.3151 92.4174 60.2705 92.638 59.4763 93.3629C59.4022 93.373 59.3294 93.386 59.2563 93.3978C59.2622 91.9453 59.2737 91.8895 59.2725 91.9193C59.8399 78.4201 75.9689 71.4302 86.2036 80.4793C86.2021 80.4908 86.2292 80.4893 86.2281 80.5008C88.8428 82.8257 90.6301 85.8315 91.3868 89.5691C91.7584 91.5147 91.6587 93.0863 91.675 93.3907ZM89.6456 77.6451C88.5323 76.5902 87.6446 75.9059 86.4053 75.1294H97.0139V75.811L89.6456 77.6451ZM92.4261 102.561V98.2681C93.2142 98.7187 93.8824 99.4997 93.8824 100.415C93.8824 101.563 93.0113 102.122 92.4261 102.561ZM96.0988 93.25C96.054 92.9147 96.34 89.8321 94.9554 85.838C97.2826 87.8317 99.9897 89.27 102.909 90.0522C100.798 91.5678 98.2511 93.0146 96.0988 93.25ZM96.0637 80.6061L98.9339 79.8918C99.0639 79.8594 99.1908 79.8151 99.3129 79.76C100.603 79.1749 101.437 77.6867 101.437 75.9688L101.437 71.8301C105.44 72.9661 109.667 73.1865 114.847 71.8546V75.9688C114.847 77.687 115.681 79.1754 116.972 79.76C117.094 79.8153 117.221 79.8594 117.351 79.8918L120.213 80.6046C113.723 88.1986 102.568 88.2145 96.0637 80.6061ZM122.222 93.0167C119.659 94.0861 115.618 91.684 113.339 90.0359C118.035 88.7339 122.029 85.8846 124.899 81.771L125.978 82.0397C125.794 88.203 124.478 92.0759 122.222 93.0167ZM144.846 145.004C142.501 147.381 139.317 146.286 134.09 146.569L132.579 117.983L144.032 116.782L146.524 139.053C146.71 141.253 146.408 143.42 144.846 145.004Z" fill="#3B0076"/>
</g>
</g>
<defs>
<clipPath id="clip0_519_2514">
<rect width="151" height="151" fill="white"/>
</clipPath>
</defs>
</svg>
