<svg width="144" height="144" viewBox="0 0 144 144" fill="none" xmlns="http://www.w3.org/2000/svg">
<g id="Frame" opacity="0.05" clip-path="url(#clip0_519_2507)">
<g id="Group">
<path id="Vector" d="M129.888 91.3342C127.402 89.9037 124.493 89.3932 121.669 89.8919C118.845 90.3907 116.286 91.867 114.441 94.0623L104.954 88.5855C107.547 83.4414 108.898 77.7608 108.898 71.9999C108.898 66.2391 107.547 60.5585 104.954 55.4143L114.443 49.9356C116.405 52.2711 119.17 53.7867 122.194 54.1834C125.218 54.58 128.281 53.8289 130.778 52.0782C133.276 50.3275 135.026 47.7044 135.684 44.7264C136.342 41.7484 135.861 38.6319 134.334 35.9917C132.807 33.3515 130.346 31.3794 127.437 30.4646C124.528 29.5497 121.381 29.7585 118.618 31.0497C115.855 32.341 113.676 34.6209 112.512 37.4397C111.347 40.2585 111.281 43.4113 112.327 46.2762L102.834 51.7575C99.673 46.9426 95.4294 42.9341 90.4423 40.0528C85.4553 37.1714 79.8631 35.4971 74.1132 35.1638V24.2133C77.1191 23.6845 79.8177 22.0483 81.6765 19.6275C83.5352 17.2067 84.4191 14.1771 84.1537 11.1366C83.8884 8.09607 82.493 5.26543 80.243 3.20323C77.9929 1.14103 75.0517 -0.00292969 71.9996 -0.00292969C68.9475 -0.00292969 66.0063 1.14103 63.7562 3.20323C61.5062 5.26543 60.1108 8.09607 59.8455 11.1366C59.5801 14.1771 60.464 17.2067 62.3227 19.6275C64.1815 22.0483 66.8801 23.6845 69.886 24.2133V35.1638C64.1361 35.4971 58.5439 37.1714 53.5569 40.0528C48.5698 42.9342 44.3262 46.9426 41.1656 51.7575L31.674 46.2771C32.5637 43.839 32.6531 41.1809 31.9292 38.6886C31.2053 36.1963 29.7057 33.9996 27.6483 32.4176C25.5909 30.8357 23.0828 29.9507 20.4882 29.8913C17.8935 29.8319 15.3475 30.6011 13.2199 32.0872C11.0922 33.5734 9.49368 35.6991 8.65644 38.1556C7.81919 40.6122 7.78682 43.2717 8.56402 45.7479C9.34123 48.2241 10.8875 50.388 12.9784 51.9255C15.0693 53.463 17.5958 54.294 20.1911 54.2978C21.9759 54.298 23.7392 53.9076 25.3572 53.154C26.9751 52.4004 28.4085 51.3018 29.5567 49.9353L39.0464 55.4143C36.4531 60.5585 35.1022 66.2391 35.1022 71.9999C35.1022 77.7608 36.4531 83.4414 39.0464 88.5855L29.559 94.0617C27.5979 91.7226 24.8313 90.2035 21.8052 89.8042C18.779 89.4048 15.7131 90.1542 13.2124 91.9044C10.7116 93.6547 8.95775 96.2787 8.2968 99.2587C7.63585 102.239 8.11585 105.358 9.64208 108.002C11.1683 110.645 13.6299 112.62 16.5411 113.538C19.4524 114.455 22.6018 114.248 25.3679 112.958C28.134 111.667 30.3159 109.387 31.4831 106.566C32.6502 103.746 32.7178 100.59 31.6726 97.7225L41.1645 92.2423C44.3251 97.0572 48.5687 101.066 53.5557 103.947C58.5428 106.828 64.1349 108.503 69.8849 108.836V119.787C66.8789 120.315 64.1803 121.952 62.3216 124.372C60.4628 126.793 59.5789 129.823 59.8443 132.863C60.1097 135.904 61.5051 138.734 63.7551 140.797C66.0051 142.859 68.9464 144.003 71.9985 144.003C75.0506 144.003 77.9918 142.859 80.2418 140.797C82.4919 138.734 83.8872 135.904 84.1526 132.863C84.418 129.823 83.5341 126.793 81.6753 124.372C79.8166 121.952 77.118 120.315 74.1121 119.787V108.836C79.862 108.503 85.4542 106.828 90.4412 103.947C95.4283 101.066 99.6718 97.0572 102.832 92.2423L112.326 97.7233C111.531 99.9053 111.376 102.269 111.878 104.536C112.38 106.803 113.519 108.88 115.16 110.523C116.802 112.165 118.879 113.305 121.146 113.808C123.413 114.311 125.776 114.156 127.959 113.362C130.141 112.568 132.051 111.168 133.465 109.326C134.879 107.483 135.738 105.276 135.94 102.962C136.143 100.649 135.68 98.3259 134.608 96.2661C133.536 94.2062 131.898 92.4952 129.887 91.3342H129.888ZM119.801 35.195C121.167 34.4065 122.736 34.0407 124.309 34.1438C125.883 34.247 127.39 34.8144 128.641 35.7743C129.892 36.7343 130.831 38.0437 131.338 39.5369C131.845 41.0302 131.897 42.6402 131.489 44.1634C131.081 45.6866 130.23 47.0546 129.045 48.0944C127.859 49.1341 126.392 49.799 124.829 50.0048C123.265 50.2107 121.676 49.9483 120.261 49.2509C118.847 48.5535 117.671 47.4523 116.883 46.0867C116.353 45.1815 116.008 44.1802 115.868 43.1408C115.728 42.1013 115.795 41.0443 116.067 40.0312C116.338 39.0181 116.808 38.0689 117.449 37.2387C118.09 36.4085 118.89 35.7139 119.801 35.195ZM27.1163 46.0867C26.1939 47.684 24.7462 48.9122 23.0199 49.5618C21.2935 50.2115 19.3953 50.2424 17.6487 49.6494C15.902 49.0564 14.415 47.8761 13.4411 46.3097C12.4671 44.7433 12.0664 42.8876 12.3072 41.0588C12.5481 39.23 13.4155 37.5414 14.7619 36.2805C16.1082 35.0196 17.85 34.2646 19.6906 34.144C21.5312 34.0234 23.3567 34.5447 24.856 35.6192C26.3553 36.6936 27.4357 38.2547 27.9131 40.0364C28.4594 42.0791 28.1729 44.2551 27.1163 46.0867ZM27.9131 103.963C27.5269 105.399 26.7469 106.697 25.6614 107.713C24.5759 108.728 23.2281 109.42 21.7702 109.71C20.3123 109.999 18.8025 109.875 17.4112 109.352C16.02 108.829 14.8028 107.927 13.8972 106.748C12.9916 105.57 12.4337 104.161 12.2865 102.682C12.1392 101.203 12.4086 99.7122 13.064 98.3781C13.7195 97.044 14.735 95.9198 15.9957 95.1325C17.2565 94.3453 18.7123 93.9262 20.1987 93.9228C20.8999 93.9233 21.598 94.0159 22.2752 94.1981C24.3177 94.7455 26.0591 96.0818 27.1164 97.913C28.1737 99.7443 28.4603 101.921 27.9131 103.963V103.963ZM64.0256 12.2003C64.0256 10.6233 64.4932 9.08185 65.3693 7.77069C66.2453 6.45953 67.4905 5.43759 68.9474 4.8341C70.4042 4.2306 72.0073 4.07266 73.5539 4.38024C75.1005 4.68781 76.5212 5.4471 77.6363 6.56208C78.7514 7.67706 79.5108 9.09766 79.8186 10.6442C80.1263 12.1908 79.9686 13.7939 79.3652 15.2509C78.7619 16.7078 77.7401 17.9531 76.429 18.8293C75.1179 19.7055 73.5765 20.1732 71.9996 20.1734C69.8857 20.171 67.8591 19.3302 66.3643 17.8355C64.8696 16.3408 64.0288 14.3141 64.0264 12.2003H64.0256ZM79.9725 131.8C79.9725 133.377 79.5048 134.918 78.6287 136.229C77.7526 137.54 76.5074 138.562 75.0504 139.166C73.5935 139.769 71.9904 139.927 70.4437 139.62C68.8971 139.312 67.4764 138.552 66.3613 137.437C65.2463 136.322 64.4869 134.902 64.1793 133.355C63.8717 131.808 64.0296 130.205 64.6332 128.748C65.2367 127.291 66.2586 126.046 67.5699 125.17C68.8811 124.294 70.4226 123.826 71.9996 123.826C74.1135 123.829 76.1401 124.67 77.6348 126.164C79.1296 127.659 79.9704 129.686 79.9727 131.8H79.9725ZM71.9996 104.671C65.5378 104.671 59.2212 102.755 53.8485 99.165C48.4757 95.575 44.2882 90.4725 41.8154 84.5026C39.3426 78.5328 38.6956 71.9637 39.9562 65.6261C41.2169 59.2885 44.3285 53.4671 48.8976 48.8979C53.4668 44.3288 59.2882 41.2172 65.6258 39.9566C71.9633 38.6959 78.5324 39.3429 84.5023 41.8157C90.4722 44.2885 95.5747 48.4761 99.1646 53.8488C102.755 59.2215 104.671 65.5382 104.671 71.9999C104.661 80.6617 101.215 88.9659 95.0904 95.0907C88.9656 101.216 80.6614 104.661 71.9996 104.671ZM130.693 105.886C129.77 107.484 128.323 108.712 126.596 109.361C124.87 110.011 122.972 110.042 121.226 109.449C119.479 108.856 117.992 107.675 117.018 106.109C116.044 104.543 115.644 102.687 115.885 100.859C116.125 99.03 116.993 97.3415 118.339 96.0807C119.685 94.8199 121.427 94.0649 123.267 93.9443C125.108 93.8237 126.933 94.345 128.432 95.4193C129.932 96.4936 131.012 98.0545 131.489 99.8361C132.036 101.879 131.749 104.055 130.693 105.886Z" fill="#3B0076"/>
<path id="Vector_2" d="M71.9995 69.8076C74.1331 69.8076 76.2187 69.1749 77.9927 67.9896C79.7666 66.8043 81.1493 65.1195 81.9657 63.1484C82.7822 61.1773 82.9958 59.0083 82.5796 56.9158C82.1634 54.8232 81.136 52.9011 79.6273 51.3925C78.1187 49.8838 76.1966 48.8564 74.104 48.4402C72.0115 48.024 69.8425 48.2376 67.8714 49.0541C65.9003 49.8705 64.2155 51.2532 63.0302 53.0271C61.8448 54.8011 61.2122 56.8867 61.2122 59.0203C61.2155 61.8802 62.3531 64.6221 64.3754 66.6444C66.3977 68.6667 69.1396 69.8043 71.9995 69.8076ZM71.9995 52.4601C73.2971 52.46 74.5655 52.8448 75.6444 53.5656C76.7233 54.2865 77.5642 55.3111 78.0608 56.5098C78.5574 57.7086 78.6873 59.0277 78.4342 60.3003C78.1811 61.573 77.5562 62.742 76.6387 63.6595C75.7212 64.577 74.5522 65.2018 73.2796 65.4549C72.007 65.7081 70.6879 65.5781 69.4891 65.0815C68.2903 64.585 67.2657 63.744 66.5449 62.6651C65.824 61.5862 65.4393 60.3178 65.4394 59.0203C65.4413 57.281 66.1331 55.6135 67.3629 54.3837C68.5928 53.1538 70.2603 52.462 71.9995 52.4601ZM71.9995 74.4828C64.1181 74.4828 57.0933 79.8027 53.6682 88.3662L53.1279 89.7162L54.1967 90.7031C59.0434 95.1822 65.4003 97.6698 71.9998 97.6698C78.5993 97.6698 84.9562 95.1822 89.8029 90.7031L90.8717 89.7162L90.3314 88.3662C86.9058 79.8027 79.881 74.4828 71.9995 74.4828ZM71.9995 93.4433C66.9742 93.4488 62.0993 91.7288 58.1901 88.5709C61.1104 82.4504 66.2955 78.71 71.9995 78.71C77.7036 78.71 82.8887 82.4506 85.8089 88.5709C81.8997 91.7288 77.0248 93.4488 71.9995 93.4433Z" fill="#3B0076"/>
</g>
</g>
<defs>
<clipPath id="clip0_519_2507">
<rect width="144" height="144" fill="white"/>
</clipPath>
</defs>
</svg>
