<svg width="183" height="183" viewBox="0 0 183 183" fill="none" xmlns="http://www.w3.org/2000/svg">
<g id="Frame" opacity="0.05">
<g id="Group">
<path id="Vector" d="M167.902 46.279C162.921 36.1811 153.024 28.0876 141.429 24.6285L128.247 20.6968C113.249 16.5171 99.6295 18.4722 89.8883 26.2019C87.8812 27.8117 86.3442 29.9319 85.4384 32.3402C78.2399 28.8625 67.711 28.4071 52.4405 35.8801L36.0963 43.8785C24.9948 49.3099 17.7206 55.9079 14.4773 63.4867C11.5965 70.2191 11.9961 77.7049 15.6325 85.1343C17.2666 88.5768 19.5684 91.6603 22.4042 94.2057C20.9262 95.3292 19.8476 96.8971 19.3268 98.6792C17.4167 105.18 19.1731 112.394 24.4051 119.543C27.5146 123.789 38.2759 131.743 44.3478 134.807C47.8698 136.586 51.7464 138.231 55.7174 138.649L70.5504 165.893C70.8141 166.379 71.2556 166.744 71.7824 166.912C72.3092 167.08 72.8806 167.038 73.3769 166.794L110.061 148.843L125.91 153.57C126.44 153.729 127.01 153.677 127.502 153.424C127.994 153.172 128.37 152.739 128.55 152.217L138.665 123.007C154.635 118.768 167.605 77.4497 169.26 71.9633C170.853 67.8274 171.555 63.402 171.321 58.9762C171.087 54.5505 169.922 50.2238 167.902 46.279ZM19.4841 83.2485C16.3702 76.8836 16.0121 70.8024 18.4204 65.1744C21.2483 58.5671 27.8292 52.6982 37.9807 47.7301L54.3256 39.7317C61.8257 36.0617 68.4902 34.236 74.2318 34.236C77.7953 34.1704 81.3172 35.0093 84.4684 36.6743C84.2865 39.1333 84.7191 41.599 85.7272 43.8492C86.3251 45.1003 86.9909 46.3178 87.7216 47.4963C88.2385 48.3684 88.7703 49.2656 89.2657 50.1956C88.3339 49.4831 87.3167 48.8899 86.2376 48.4299C84.9875 47.9255 83.6365 47.721 82.2931 47.8329C80.9496 47.9447 79.6511 48.3698 78.5016 49.074C72.5855 52.6203 68.9205 59.2341 67.9019 68.2011C67.5051 71.6931 68.4702 78.6449 69.8663 84.8498C68.3063 85.7521 66.7161 86.6008 65.0983 87.3946L58.8791 90.4377C48.7283 95.4045 40.0573 97 33.1018 95.1786C27.1808 93.6273 22.5994 89.6128 19.4841 83.2485ZM46.28 130.979C40.3332 127.976 30.3518 120.404 27.8663 117.008C23.3893 110.892 21.9002 105.133 23.4414 99.8879C23.613 99.2557 23.9301 98.6723 24.3673 98.1845C24.8046 97.6967 25.35 97.318 25.9598 97.0786C26.0599 97.0429 26.1657 97.0071 26.2744 96.9728C28.0754 98.0089 30.0062 98.8007 32.016 99.3275C33.6035 99.7369 35.2255 99.9987 36.8612 100.11L36.9884 100.331C39.5304 105.552 40.5269 111.108 39.7971 115.983C39.7215 116.542 39.8687 117.107 40.2068 117.558C40.545 118.009 41.0469 118.308 41.6041 118.392C42.1613 118.475 42.729 118.336 43.1845 118.005C43.64 117.673 43.9467 117.176 44.0382 116.62C44.7513 110.99 43.9034 105.272 41.587 100.091C47.3701 99.6421 53.7851 97.7055 60.7649 94.29L66.984 91.2476C68.3327 90.5876 69.653 89.8963 70.945 89.1739C71.386 90.7644 71.8435 92.2134 72.296 93.4222C73.7085 97.1937 75.4835 101.107 78.1756 104.165L72.2624 127.676L58.4659 134.428C54.4678 134.715 50.2895 133.002 46.28 130.979ZM73.3368 162.039L60.5125 138.487C61.8953 138.232 63.2356 137.785 64.4942 137.158L70.6469 134.1L70.4496 134.885C70.3265 135.381 70.3856 135.904 70.6161 136.36L68.4845 137.404C68.2316 137.527 68.0055 137.7 67.8192 137.911C67.6329 138.122 67.49 138.368 67.3987 138.634C67.3073 138.9 67.2693 139.182 67.2869 139.463C67.3044 139.744 67.3771 140.019 67.5008 140.272L75.0539 155.708C75.1775 155.961 75.3498 156.187 75.561 156.374C75.7721 156.56 76.0179 156.703 76.2843 156.794C76.5508 156.886 76.8326 156.924 77.1137 156.906C77.3948 156.888 77.6696 156.816 77.9226 156.692L100.06 145.858L103.999 147.033L73.3368 162.039ZM72.296 140.312L75.7702 138.612L93.998 144.05L77.964 151.896L72.296 140.312ZM125.169 148.873L75.1096 133.941L81.8678 107.07L134.236 122.691L125.169 148.873ZM165.226 70.5086C165.207 70.5568 165.19 70.6057 165.176 70.6551C159.54 89.3776 147.287 117.532 136.911 119.014L83.0844 102.957C79.8769 100.403 77.9233 96.2194 76.3134 91.9189C73.928 85.5518 71.6784 72.9584 72.1631 68.6865C73.0387 60.989 75.9124 55.6284 80.7076 52.754C81.2795 52.3952 81.9274 52.1751 82.5995 52.1113C83.2716 52.0476 83.9493 52.1418 84.5785 52.3866C86.3641 53.1357 88.9676 54.9665 91.4031 59.4299C91.2726 60.4144 91.0324 61.3812 90.6868 62.3122C90.6716 62.3534 90.6578 62.3951 90.6453 62.4373C88.9419 68.1489 85.8316 73.0384 81.8899 76.208C81.6705 76.3845 81.4879 76.6025 81.3527 76.8496C81.2174 77.0966 81.1322 77.3679 81.1018 77.6478C81.0714 77.9278 81.0964 78.2111 81.1755 78.4814C81.2545 78.7517 81.3861 79.0038 81.5625 79.2232C81.739 79.4427 81.957 79.6253 82.204 79.7605C82.4511 79.8958 82.7224 79.981 83.0023 80.0114C83.2823 80.0418 83.5656 80.0168 83.8359 79.9377C84.1062 79.8587 84.3583 79.7271 84.5778 79.5506C89.1756 75.8549 92.7827 70.2362 94.7371 63.7247C95.2631 62.2961 95.6005 60.805 95.7407 59.2891C95.7479 59.2248 95.7536 59.1604 95.7558 59.0961C96.1961 53.3774 93.4976 48.8288 91.4109 45.3103C90.7643 44.268 90.1726 43.1926 89.6381 42.0885C88.6823 39.9698 88.45 37.5955 88.9771 35.3317C89.5042 33.0678 90.7613 31.0403 92.5547 29.5616C101.193 22.7098 113.459 21.0264 127.058 24.8179L140.203 28.7395C150.676 31.8634 159.593 39.1298 164.056 48.1761C165.815 51.6054 166.829 55.3681 167.03 59.2169C167.232 63.0657 166.617 66.9143 165.226 70.5086Z" fill="#3B0076"/>
<path id="Vector_2" d="M82.3117 133.032L119.641 144.167C119.911 144.248 120.194 144.275 120.474 144.246C120.755 144.217 121.027 144.133 121.274 143.999C121.522 143.865 121.741 143.684 121.919 143.465C122.096 143.246 122.229 142.994 122.309 142.724L127.32 125.924C127.483 125.379 127.422 124.792 127.152 124.292C126.882 123.791 126.424 123.419 125.879 123.256L88.5495 112.12C88.2796 112.04 87.9965 112.013 87.7163 112.042C87.4361 112.071 87.1643 112.155 86.9165 112.289C86.6687 112.422 86.4497 112.604 86.2721 112.822C86.0944 113.041 85.9615 113.292 85.8809 113.562L80.8699 130.363C80.7893 130.633 80.7627 130.916 80.7916 131.196C80.8204 131.477 80.9042 131.748 81.0381 131.996C81.172 132.244 81.3534 132.463 81.5719 132.641C81.7904 132.818 82.0418 132.951 82.3117 133.032ZM89.3787 116.843L122.597 126.754L118.812 139.444L85.5929 129.534L89.3787 116.843ZM100.78 37.8074C100.918 38.0527 101.104 38.2682 101.325 38.4418C101.547 38.6154 101.801 38.7436 102.072 38.8191C102.344 38.8946 102.627 38.916 102.907 38.8819C103.186 38.8478 103.456 38.759 103.702 38.6205C103.947 38.4821 104.162 38.2967 104.336 38.0749C104.51 37.8531 104.638 37.5993 104.713 37.328C104.789 37.0567 104.81 36.7731 104.776 36.4936C104.742 36.214 104.653 35.9439 104.515 35.6986C103.033 33.1181 101.344 30.6618 99.4658 28.3536C99.1075 27.9186 98.5923 27.6422 98.0317 27.5842C97.4711 27.5261 96.9102 27.691 96.4703 28.0433C96.0304 28.3956 95.7468 28.9069 95.6809 29.4666C95.615 30.0263 95.7721 30.5895 96.1182 31.0343C97.8519 33.1628 99.4108 35.4279 100.78 37.8074ZM105.372 42.5797C104.823 42.7264 104.354 43.0852 104.069 43.5773C103.784 44.0694 103.706 44.6545 103.853 45.2039C104.505 47.6611 104.83 50.1939 104.818 52.7362L104.816 53.1151C104.813 53.3967 104.866 53.6761 104.971 53.9374C105.076 54.1987 105.232 54.4367 105.429 54.6378C105.626 54.8389 105.861 54.9993 106.12 55.1096C106.379 55.22 106.657 55.2782 106.939 55.281H106.961C107.526 55.2811 108.068 55.0583 108.469 54.661C108.871 54.2638 109.099 53.7242 109.106 53.1594L109.107 52.7355C109.119 49.82 108.746 46.9156 107.997 44.098C107.924 43.8259 107.799 43.5707 107.628 43.3471C107.456 43.1235 107.243 42.9358 106.999 42.7948C106.755 42.6538 106.486 42.5622 106.207 42.5253C105.928 42.4884 105.644 42.5069 105.372 42.5797ZM106.388 59.5401C105.832 59.4179 105.251 59.5213 104.772 59.8274C104.292 60.1336 103.954 60.6175 103.831 61.1728C103.221 63.869 102.434 66.522 101.475 69.1147C101.374 69.38 101.328 69.6626 101.338 69.946C101.348 70.2294 101.413 70.5081 101.532 70.7658C101.65 71.0236 101.818 71.2554 102.026 71.4477C102.235 71.64 102.479 71.7891 102.746 71.8864C103.012 71.9836 103.295 72.027 103.578 72.0141C103.862 72.0012 104.14 71.9323 104.396 71.8113C104.653 71.6903 104.883 71.5196 105.073 71.3091C105.263 71.0987 105.409 70.8526 105.503 70.5851C106.528 67.8137 107.369 64.9777 108.02 62.0956C108.142 61.5404 108.039 60.9592 107.733 60.48C107.427 60.0007 106.943 59.6627 106.388 59.5401ZM90.2472 91.8639C88.8717 94.0708 87.1251 96.0234 85.0846 97.6355C84.6487 98.001 84.3759 98.5246 84.3261 99.0912C84.2763 99.6578 84.4536 100.221 84.819 100.657C85.1845 101.093 85.7081 101.366 86.2747 101.415C86.8413 101.465 87.4045 101.288 87.8403 100.922C90.253 99.0031 92.3147 96.68 93.9337 94.0563L93.973 93.9913L92.1273 92.8976L90.2472 91.8639ZM101.091 75.8185C100.836 75.6996 100.56 75.6323 100.278 75.6203C99.997 75.6084 99.716 75.652 99.4515 75.7487C99.1869 75.8455 98.9441 75.9934 98.7368 76.1841C98.5295 76.3748 98.3619 76.6045 98.2435 76.86C97.0509 79.4131 95.786 81.9318 94.4505 84.4131C94.3135 84.6615 94.2272 84.9347 94.1966 85.2167C94.1659 85.4987 94.1915 85.784 94.2719 86.0561C94.3523 86.3282 94.4859 86.5816 94.6649 86.8017C94.8439 87.0217 95.0648 87.2041 95.3148 87.3382C95.5648 87.4723 95.839 87.5555 96.1213 87.5829C96.4037 87.6103 96.6887 87.5814 96.9598 87.4979C97.2309 87.4144 97.4828 87.2779 97.7008 87.0964C97.9188 86.9149 98.0986 86.6919 98.2299 86.4404C99.6047 83.8868 100.906 81.2944 102.133 78.6664C102.372 78.1507 102.397 77.561 102.202 77.027C102.007 76.4929 101.608 76.0582 101.092 75.8185H101.091Z" fill="#3B0076"/>
</g>
</g>
</svg>
