<svg width="155" height="155" viewBox="0 0 155 155" fill="none" xmlns="http://www.w3.org/2000/svg">
<g id="Frame" opacity="0.05" clip-path="url(#clip0_519_2496)">
<g id="Group">
<path id="Vector" d="M146.897 31.7476C146.897 30.4944 146.581 29.2615 145.979 28.1624C145.377 27.0634 144.508 26.1335 143.452 25.4586C142.396 24.7837 141.187 24.3854 139.937 24.3005C138.687 24.2156 137.435 24.4467 136.298 24.9727V23.8707C136.298 22.5944 135.971 21.3394 135.348 20.2256C134.725 19.1118 133.826 18.1764 132.738 17.5089C131.651 16.8413 130.41 16.464 129.135 16.4128C127.859 16.3616 126.592 16.6384 125.454 17.2166C125.156 16.106 124.606 15.0792 123.846 14.2162C123.086 13.3531 122.138 12.6772 121.074 12.2409C120.01 11.8046 118.86 11.6199 117.713 11.701C116.566 11.7821 115.453 12.1269 114.461 12.7086C113.764 11.1469 112.552 9.87169 111.028 9.09608C109.504 8.32048 107.759 8.09145 106.087 8.44726C104.414 8.80308 102.914 9.72219 101.837 11.051C100.761 12.3798 100.173 14.0379 100.172 15.7481V50.3346L94.3382 44.5021C92.9351 43.1028 91.0341 42.3173 89.0525 42.3179C87.0708 42.3186 85.1704 43.1054 83.7682 44.5057C80.9576 47.3284 80.9183 51.8225 83.6774 54.9597L100.558 74.1228C99.6653 74.7323 98.9349 75.5503 98.4299 76.506C97.925 77.4616 97.6609 78.526 97.6604 79.6069V91.6984C97.6628 93.0849 98.0981 94.4361 98.9058 95.5632C99.7134 96.6903 100.853 97.537 102.165 97.9849V152.831C102.165 153.116 102.221 153.398 102.33 153.661C102.439 153.924 102.599 154.163 102.8 154.365C103.002 154.566 103.241 154.726 103.504 154.835C103.767 154.944 104.049 155 104.334 155C104.619 155 104.901 154.944 105.164 154.835C105.427 154.726 105.666 154.566 105.867 154.365C106.069 154.163 106.229 153.924 106.338 153.661C106.447 153.398 106.503 153.116 106.503 152.831V98.344H135.535V152.831C135.532 153.118 135.585 153.403 135.693 153.669C135.8 153.935 135.959 154.177 136.161 154.381C136.363 154.585 136.603 154.748 136.868 154.858C137.133 154.969 137.417 155.026 137.704 155.026C137.991 155.026 138.275 154.969 138.54 154.858C138.805 154.748 139.045 154.585 139.247 154.381C139.448 154.177 139.608 153.935 139.715 153.669C139.823 153.403 139.876 153.118 139.873 152.831V97.9831C141.185 97.5352 142.325 96.6886 143.132 95.5615C143.94 94.4344 144.375 93.0832 144.378 91.6966V79.605C144.377 78.4879 144.094 77.389 143.556 76.4101C143.018 75.4312 142.241 74.6038 141.298 74.0044C144.46 67.7451 146.899 62.5771 146.899 54.2964L146.897 31.7476ZM140.038 91.6966C140.03 92.3065 139.785 92.8893 139.353 93.3206C138.922 93.752 138.339 93.9978 137.729 94.0058H104.307C103.695 94.0051 103.108 93.7616 102.675 93.3287C102.242 92.8957 101.999 92.3088 101.998 91.6966V79.605C101.999 78.9928 102.242 78.4057 102.675 77.9727C103.108 77.5398 103.695 77.2962 104.307 77.2955H137.729C138.339 77.3036 138.922 77.5495 139.353 77.9809C139.785 78.4123 140.03 78.995 140.038 79.605V91.6966ZM142.557 54.2976C142.557 61.9132 140.226 66.5184 136.998 72.8925L136.965 72.9573H105.314L86.9339 52.0922C85.7042 50.6939 85.6649 48.7476 86.8392 47.5682C87.4273 46.9813 88.2242 46.6518 89.055 46.6518C89.8859 46.6518 90.6828 46.9813 91.2709 47.5682L100.807 57.1043C101.11 57.4076 101.497 57.6141 101.918 57.6978C102.338 57.7815 102.774 57.7385 103.171 57.5744C103.567 57.4102 103.906 57.1323 104.144 56.7756C104.382 56.4189 104.51 55.9996 104.51 55.5706V15.7481C104.51 14.9178 104.84 14.1215 105.427 13.5344C106.014 12.9473 106.81 12.6175 107.64 12.6175C108.471 12.6175 109.267 12.9473 109.854 13.5344C110.441 14.1215 110.771 14.9178 110.771 15.7481V43.1095C110.768 43.3965 110.821 43.6813 110.929 43.9474C111.036 44.2135 111.195 44.4557 111.397 44.6598C111.599 44.8639 111.839 45.026 112.104 45.1366C112.369 45.2472 112.653 45.3042 112.94 45.3042C113.227 45.3042 113.511 45.2472 113.776 45.1366C114.041 45.026 114.281 44.8639 114.483 44.6598C114.684 44.4557 114.844 44.2135 114.951 43.9474C115.059 43.6813 115.112 43.3965 115.109 43.1095V19.1465C115.109 18.3163 115.439 17.52 116.026 16.9329C116.613 16.3458 117.409 16.016 118.239 16.016C119.07 16.016 119.866 16.3458 120.453 16.9329C121.04 17.52 121.37 18.3163 121.37 19.1465V44.3746C121.37 44.9498 121.598 45.5015 122.005 45.9082C122.412 46.3149 122.964 46.5434 123.539 46.5434C124.114 46.5434 124.666 46.3149 125.072 45.9082C125.479 45.5015 125.708 44.9498 125.708 44.3746V23.8707C125.716 23.0469 126.049 22.2596 126.634 21.68C127.219 21.1003 128.01 20.7751 128.834 20.7751C129.658 20.7751 130.448 21.1003 131.033 21.68C131.619 22.2596 131.952 23.0469 131.96 23.8707V44.3746C131.957 44.6616 132.01 44.9464 132.118 45.2125C132.225 45.4787 132.384 45.7208 132.586 45.9249C132.788 46.1291 133.028 46.2911 133.293 46.4018C133.558 46.5124 133.842 46.5693 134.129 46.5693C134.416 46.5693 134.7 46.5124 134.965 46.4018C135.23 46.2911 135.47 46.1291 135.672 45.9249C135.873 45.7208 136.033 45.4787 136.14 45.2125C136.248 44.9464 136.301 44.6616 136.298 44.3746V31.7476C136.306 30.9227 136.639 30.1343 137.225 29.5538C137.812 28.9734 138.603 28.6478 139.428 28.6478C140.253 28.6478 141.045 28.9734 141.631 29.5538C142.217 30.1343 142.551 30.9227 142.559 31.7476L142.557 54.2976ZM81.4856 68.9358C80.403 68.9344 79.3331 69.1695 78.3508 69.6248V68.5231C78.3524 67.2452 78.0259 65.9883 77.4025 64.8728C76.7792 63.7572 75.8799 62.8204 74.7907 62.1519C73.7016 61.4835 72.459 61.106 71.1821 61.0554C69.9052 61.0048 68.6367 61.2829 67.4981 61.863C67.2015 60.7515 66.652 59.7237 65.8924 58.8598C65.1329 57.9959 64.1839 57.3193 63.1195 56.8829C62.0552 56.4465 60.9044 56.262 59.757 56.344C58.6096 56.4259 57.4967 56.772 56.5052 57.3553C55.8089 55.792 54.5968 54.5153 53.0718 53.7388C51.5467 52.9624 49.8012 52.7333 48.1275 53.09C46.4537 53.4466 44.9532 54.3673 43.8771 55.698C42.8011 57.0286 42.2147 58.6885 42.2161 60.3999V94.9836L36.3824 89.1442C34.98 87.7486 33.082 86.9652 31.1035 86.9652C29.125 86.9652 27.227 87.7486 25.8246 89.1442C23.0037 91.9651 22.9628 96.464 25.7307 99.6106L42.6094 118.772C41.717 119.382 40.9868 120.2 40.4822 121.156C39.9775 122.112 39.7137 123.176 39.7134 124.257V136.34C39.7152 137.727 40.1503 139.079 40.958 140.206C41.7656 141.334 42.9055 142.181 44.2181 142.629V152.831C44.2147 153.118 44.2683 153.403 44.3758 153.669C44.4833 153.935 44.6425 154.177 44.8442 154.381C45.046 154.585 45.2862 154.747 45.5511 154.858C45.8159 154.968 46.1 155.025 46.387 155.025C46.674 155.025 46.9582 154.968 47.223 154.858C47.4879 154.747 47.7281 154.585 47.9299 154.381C48.1316 154.177 48.2908 153.935 48.3983 153.669C48.5058 153.403 48.5594 153.118 48.556 152.831V142.987H77.5776V152.831C77.5742 153.118 77.6278 153.403 77.7353 153.669C77.8428 153.935 78.002 154.177 78.2037 154.381C78.4055 154.585 78.6457 154.748 78.9106 154.858C79.1754 154.969 79.4595 155.026 79.7466 155.026C80.0336 155.026 80.3177 154.969 80.5825 154.858C80.8474 154.748 81.0876 154.585 81.2894 154.381C81.4911 154.177 81.6503 153.935 81.7578 153.669C81.8653 153.403 81.9189 153.118 81.9155 152.831V142.629C83.2299 142.182 84.3717 141.336 85.1811 140.208C85.9905 139.08 86.4269 137.728 86.4293 136.34V124.257C86.4283 123.14 86.1456 122.041 85.6074 121.062C85.0691 120.083 84.2927 119.256 83.3499 118.657C86.5119 112.397 88.9504 107.228 88.9504 98.9398V76.3997C88.9482 74.4207 88.161 72.5233 86.7615 71.1241C85.362 69.7248 83.4646 68.9378 81.4856 68.9358ZM82.0911 136.34C82.0904 136.952 81.8468 137.539 81.4138 137.972C80.9808 138.405 80.3938 138.649 79.7815 138.649H46.3521C45.741 138.647 45.1555 138.403 44.7241 137.971C44.2928 137.538 44.0508 136.951 44.0513 136.34V124.257C44.0508 123.646 44.2928 123.06 44.7241 122.627C45.1554 122.194 45.7409 121.949 46.3521 121.948H79.7821C80.3945 121.948 80.9815 122.192 81.4145 122.625C81.8475 123.058 82.091 123.645 82.0917 124.257L82.0911 136.34ZM84.611 98.941C84.611 106.565 82.28 111.171 79.0504 117.547L79.0186 117.61H47.3671L28.9872 96.7443C27.7524 95.3409 27.7118 93.3922 28.8888 92.2148C29.4764 91.6296 30.2716 91.3007 31.1009 91.3C31.9301 91.2993 32.726 91.6267 33.3145 92.2109L42.8507 101.756C43.1538 102.06 43.5403 102.267 43.9611 102.351C44.3819 102.435 44.8182 102.392 45.2147 102.228C45.6112 102.063 45.95 101.785 46.1884 101.429C46.4267 101.072 46.5539 100.652 46.5537 100.223V60.4005C46.5537 59.9894 46.6347 59.5823 46.792 59.2024C46.9493 58.8226 47.1799 58.4775 47.4706 58.1868C47.7613 57.8961 48.1064 57.6655 48.4863 57.5082C48.8661 57.3509 49.2732 57.2699 49.6843 57.2699C50.0954 57.2699 50.5025 57.3509 50.8823 57.5082C51.2621 57.6655 51.6072 57.8961 51.8979 58.1868C52.1886 58.4775 52.4192 58.8226 52.5765 59.2024C52.7339 59.5823 52.8148 59.9894 52.8148 60.4005V87.7628C52.8216 88.3336 53.0531 88.8788 53.4591 89.28C53.8651 89.6813 54.4129 89.9063 54.9838 89.9063C55.5546 89.9063 56.1025 89.6813 56.5085 89.28C56.9145 88.8788 57.146 88.3336 57.1527 87.7628V63.799C57.1487 63.3853 57.2266 62.9749 57.3821 62.5915C57.5376 62.2082 57.7676 61.8594 58.0586 61.5654C58.3497 61.2715 58.6962 61.0381 59.078 60.8789C59.4599 60.7196 59.8695 60.6376 60.2832 60.6376C60.6969 60.6376 61.1065 60.7196 61.4883 60.8789C61.8701 61.0381 62.2166 61.2715 62.5077 61.5654C62.7988 61.8594 63.0287 62.2082 63.1842 62.5915C63.3397 62.9749 63.4176 63.3853 63.4136 63.799V89.0186C63.4203 89.5894 63.6518 90.1345 64.0578 90.5357C64.4639 90.937 65.0117 91.162 65.5825 91.162C66.1534 91.162 66.7012 90.937 67.1072 90.5357C67.5132 90.1345 67.7447 89.5894 67.7515 89.0186V68.5234C67.7515 67.6932 68.0813 66.8969 68.6684 66.3098C69.2555 65.7227 70.0518 65.3929 70.882 65.3929C71.7123 65.3929 72.5086 65.7227 73.0957 66.3098C73.6828 66.8969 74.0126 67.6932 74.0126 68.5234V89.0186C74.0194 89.5894 74.2508 90.1345 74.6569 90.5357C75.0629 90.937 75.6107 91.162 76.1815 91.162C76.7524 91.162 77.3002 90.937 77.7063 90.5357C78.1123 90.1345 78.3438 89.5894 78.3505 89.0186V76.3997C78.3586 75.5748 78.692 74.7864 79.2782 74.206C79.8644 73.6255 80.656 73.2999 81.4809 73.2999C82.3059 73.2999 83.0975 73.6255 83.6837 74.206C84.2698 74.7864 84.6032 75.5748 84.6113 76.3997L84.611 98.941ZM63.8465 43.5902C64.2361 43.9834 64.6996 44.2957 65.2103 44.509C65.7211 44.7224 66.2689 44.8327 66.8224 44.8335C67.376 44.8344 67.9242 44.7258 68.4356 44.5139C68.9469 44.3021 69.4114 43.9913 69.8022 43.5993L89.1499 24.2612C90.4702 22.9404 91.5174 21.3725 92.2317 19.647C92.946 17.9214 93.3135 16.0721 93.3131 14.2046C93.3127 12.3371 92.9444 10.4879 92.2294 8.76267C91.5144 7.03745 90.4665 5.46996 89.1457 4.14969C87.8249 2.82943 86.2569 1.78225 84.5314 1.06794C82.8059 0.353627 80.9566 -0.013821 79.089 -0.0134274C77.2215 -0.0130338 75.3723 0.355193 73.6471 1.07023C71.9219 1.78527 70.3544 2.83311 69.0341 4.15393L66.8299 6.36692L64.6215 4.14969C61.9504 1.50158 58.339 0.0194785 54.5778 0.0277565C50.8165 0.0360346 47.2117 1.53402 44.5523 4.19386C41.8929 6.8537 40.3955 10.4588 40.3879 14.22C40.3802 17.9813 41.8629 21.5924 44.5115 24.2631L63.8465 43.5902ZM47.5772 7.21972C49.4333 5.37236 51.9452 4.33489 54.5639 4.3341C57.1827 4.3333 59.6952 5.36924 61.5524 7.21548L63.8562 9.52838C64.6454 10.3159 65.7148 10.7582 66.8298 10.7582C67.9447 10.7582 69.0142 10.3159 69.8034 9.52838L69.8064 9.52535L72.103 7.21972C73.9562 5.36606 76.4699 4.32451 79.091 4.3242C81.7122 4.32389 84.2261 5.36484 86.0798 7.21806C87.9334 9.07128 88.975 11.585 88.9753 14.2061C88.9756 16.8273 87.9346 19.3412 86.0814 21.1949L66.8299 40.4379L47.58 21.1967C45.7323 19.3403 44.6948 16.8279 44.6943 14.2088C44.6938 11.5896 45.7303 9.07681 47.5772 7.21972ZM27.6092 61.8712C28.0855 61.8721 28.5573 61.7791 28.9975 61.5972C29.4378 61.4154 29.8378 61.1484 30.1746 60.8116L43.9693 47.0148C45.9532 44.9891 47.0579 42.2626 47.0435 39.4273C47.0291 36.5919 45.8967 33.8768 43.8923 31.8714C41.8879 29.866 39.1733 28.7324 36.3379 28.7166C33.5026 28.7008 30.7756 29.8043 28.749 31.7872L27.6092 32.9258L26.4685 31.7872C24.4419 29.8043 21.7148 28.7008 18.8795 28.7166C16.0442 28.7324 13.3296 29.866 11.3252 31.8714C9.32074 33.8768 8.18838 36.5919 8.17397 39.4273C8.15956 42.2626 9.26427 44.9891 11.2482 47.0148L25.0432 60.8104C25.38 61.1475 25.78 61.4147 26.2204 61.5968C26.6607 61.7788 27.1327 61.8721 27.6092 61.8712ZM14.3152 34.853C15.5211 33.6501 17.1549 32.9746 18.8582 32.9746C20.5615 32.9746 22.1953 33.6501 23.4012 34.853L25.0435 36.4957C25.7245 37.1748 26.647 37.5561 27.6087 37.5561C28.5705 37.5561 29.493 37.1748 30.174 36.4957L31.816 34.8533C32.4131 34.2567 33.1219 33.7836 33.9019 33.4609C34.6819 33.1383 35.5179 32.9724 36.362 32.9728C37.2061 32.9732 38.0418 33.1398 38.8215 33.4632C39.6012 33.7866 40.3096 34.2604 40.9062 34.8576C41.5028 35.4547 41.9759 36.1635 42.2986 36.9435C42.6212 37.7235 42.7871 38.5594 42.7867 39.4035C42.7863 40.2476 42.6197 41.0834 42.2963 41.8631C41.9729 42.6428 41.4991 43.3512 40.9019 43.9478L27.6092 57.2408L14.3191 43.9508C13.1153 42.7432 12.439 41.1078 12.4382 39.4027C12.4375 37.6976 13.1124 36.0616 14.3152 34.853Z" fill="#3B0076"/>
</g>
</g>
<defs>
<clipPath id="clip0_519_2496">
<rect width="155" height="155" fill="white"/>
</clipPath>
</defs>
</svg>
