<svg width="151" height="151" viewBox="0 0 151 151" fill="none" xmlns="http://www.w3.org/2000/svg">
<g id="Frame" opacity="0.05">
<g id="Group">
<path id="Vector" d="M120.91 78.0835C120.624 78.0311 120.331 78.0354 120.047 78.0963C119.763 78.1573 119.494 78.2735 119.255 78.4385C119.015 78.6035 118.811 78.8139 118.654 79.0579C118.496 79.3018 118.388 79.5744 118.335 79.8601C118.23 80.4371 118.357 81.0324 118.691 81.5152C119.024 81.998 119.535 82.3287 120.112 82.4345C132.614 84.7269 141.688 95.6219 141.688 108.34C141.688 121.125 132.531 131.809 120.433 134.184C120.409 134.188 120.385 134.19 120.361 134.194C118.71 134.515 117.032 134.677 115.349 134.679C100.826 134.679 89.0107 122.863 89.0107 108.34C89.0107 95.4562 98.2901 84.6889 110.587 82.4345C111.164 82.3287 111.675 81.998 112.008 81.5152C112.341 81.0324 112.469 80.4371 112.363 79.8601C112.143 78.6583 110.989 77.8623 109.789 78.0835C102.739 79.3762 96.6268 83.0152 92.1853 88.1008L78.4322 82.7745V75.0983C83.4161 71.2829 86.8528 65.5487 87.6328 59.0083C93.5564 58.7455 97.9669 54.0061 97.9669 48.3713C97.9682 45.7829 97.0201 43.284 95.3023 41.3478V31.6398C95.3029 14.1934 81.1095 0 63.6637 0C46.2178 0 32.0241 14.1934 32.0241 31.6395V41.5987C30.2994 43.5048 29.3607 45.8662 29.3607 48.371C29.3607 53.9996 33.7621 58.7446 39.6933 59.0077C40.4704 65.5894 43.9443 71.5619 49.4154 75.4687V82.7743L18.3324 94.8248C18.3185 94.8301 18.3046 94.8356 18.2908 94.8413C17.7437 95.0663 4.88867 100.524 4.88867 115.549V145.989C4.88867 148.752 7.13627 151 9.89939 151H118.007C120.756 151 122.993 148.763 122.993 146.013V138.142C136.27 134.734 146.112 122.666 146.112 108.341C146.112 93.4861 135.513 80.7611 120.91 78.0835ZM84.9022 90.024L76.9337 105.994C76.8257 105.917 74.8265 104.497 67.1266 99.0283L76.9245 86.9341L84.9022 90.024ZM69.6302 106.234L67.352 109.663H60.5136L58.2356 106.234L63.9329 102.187L69.6302 106.234ZM53.8398 83.485V77.9641C56.8288 79.2499 60.3744 80.0005 63.9772 80.0005C67.4487 80.0005 70.8863 79.2402 74.0086 77.7833V83.506L63.9326 95.9434L53.8398 83.485ZM91.4034 53.0444C90.3977 53.9094 89.1602 54.4246 87.808 54.5588V42.185C93.4735 42.7336 95.4512 49.5631 91.4034 53.0444ZM39.5202 54.5588C36.1191 54.222 33.7851 51.4984 33.7851 48.3713C33.7851 45.236 36.5073 42.7796 39.5202 42.2856V54.5588ZM39.5924 37.8155C38.5617 37.9096 37.3363 38.2139 36.4483 38.5599V31.6395C36.4483 16.633 48.6569 4.42412 63.6634 4.42412C78.6696 4.42412 90.8788 16.6327 90.8788 31.6395V38.3658C89.8896 38.0149 88.8558 37.806 87.808 37.7453C87.808 35.0869 88.1313 35.8433 80.4241 27.5749C79.808 26.9137 79.0851 25.9437 77.5563 25.6225C77.0139 25.5084 76.4544 25.5026 75.9098 25.6054C75.3652 25.7083 74.8463 25.9177 74.3829 26.2218C65.6907 31.8999 54.7827 35.0874 44.3053 34.4009C41.7448 34.2319 39.987 35.6879 39.5924 37.8155ZM43.9443 56.1699V38.812C55.2003 39.5658 67.0762 36.2338 76.6562 30.0204C80.6535 34.3153 82.8038 36.5444 83.3842 37.292C83.3842 59.3572 83.3892 55.4309 83.3718 56.6551C83.1138 67.0829 74.5651 75.5764 63.9772 75.5764C52.198 75.5767 43.9443 66.4949 43.9443 56.1699ZM50.9278 86.9397L60.7277 99.0362L50.9313 105.994L42.9628 90.0246L50.9278 86.9397ZM29.7904 146.576V120.264C29.7904 119.043 28.8004 118.053 27.5785 118.053C26.3566 118.053 25.3666 119.043 25.3666 120.264V146.576H9.89939C9.74389 146.576 9.59482 146.514 9.48487 146.404C9.37491 146.294 9.31303 146.145 9.3128 145.99V115.55C9.3128 103.649 19.3643 99.1925 19.9595 98.9395L38.8186 91.6281L47.1147 108.255L47.115 108.255C47.3823 108.791 47.7628 109.264 48.2302 109.639C48.6976 110.014 49.2408 110.283 49.8224 110.428C51.9783 110.968 53.2621 109.765 54.6264 108.797L57.0002 112.369L51.2106 146.576H29.7904ZM98.0928 146.576H76.655L74.6696 134.845C74.6235 134.556 74.5208 134.28 74.3672 134.031C74.2137 133.782 74.0124 133.566 73.7749 133.396C73.5375 133.226 73.2687 133.104 72.984 133.038C72.6992 132.972 72.4043 132.963 72.1161 133.012C71.828 133.061 71.5523 133.166 71.3052 133.322C71.058 133.478 70.8441 133.682 70.676 133.921C70.5079 134.16 70.3888 134.43 70.3256 134.715C70.2624 135 70.2564 135.295 70.308 135.583L72.1686 146.576H55.6978L61.1969 114.086H66.6698L68.5608 125.26C68.6092 125.546 68.7135 125.82 68.8679 126.067C69.0222 126.313 69.2236 126.526 69.4604 126.694C69.6972 126.863 69.9649 126.983 70.2481 127.047C70.5314 127.112 70.8246 127.12 71.111 127.072C71.6894 126.974 72.2052 126.65 72.5449 126.172C72.8847 125.694 73.0206 125.1 72.9227 124.522L70.8659 112.369L73.2398 108.797L74.6324 109.786C76.7101 111.262 79.6139 110.533 80.7505 108.255H80.7508L89.0464 91.6296L89.4239 91.7756C86.2639 96.7228 84.5856 102.471 84.5872 108.341C84.5872 118.913 89.948 128.255 98.0931 133.795L98.0928 146.576ZM118.57 146.014C118.569 146.163 118.51 146.306 118.405 146.411C118.299 146.517 118.156 146.576 118.007 146.576H102.517V136.295C106.425 138.097 110.772 139.104 115.35 139.104C116.437 139.104 117.511 139.046 118.57 138.936L118.57 146.014Z" fill="#3B0076"/>
<path id="Vector_2" d="M125.819 101.805C125.41 101.384 124.85 101.144 124.263 101.137C123.677 101.129 123.111 101.355 122.691 101.764L113.995 110.241L110.352 106.67C109.933 106.26 109.368 106.032 108.781 106.038C108.194 106.044 107.634 106.283 107.223 106.702C106.812 107.121 106.585 107.686 106.591 108.272C106.597 108.859 106.836 109.419 107.255 109.83L112.442 114.914C112.855 115.319 113.411 115.547 113.99 115.546C114.567 115.547 115.122 115.321 115.534 114.918L125.779 104.933C125.987 104.73 126.153 104.488 126.268 104.221C126.382 103.954 126.443 103.667 126.447 103.377C126.451 103.086 126.397 102.798 126.289 102.528C126.182 102.259 126.022 102.013 125.819 101.805Z" fill="#3B0076"/>
<path id="Vector_3" d="M115.35 85.3591C102.678 85.3591 92.3682 95.6687 92.3682 108.341C92.3682 121.013 102.678 131.323 115.35 131.323C128.022 131.323 138.332 121.013 138.332 108.341C138.332 95.6687 128.022 85.3591 115.35 85.3591ZM115.35 126.898C105.117 126.898 96.7923 118.573 96.7923 108.341C96.7923 98.108 105.117 89.783 115.35 89.783C125.583 89.783 133.908 98.108 133.908 108.341C133.908 118.573 125.583 126.898 115.35 126.898Z" fill="#3B0076"/>
</g>
</g>
</svg>
