<svg width="20" height="20" viewBox="0 0 20 20" fill="none" xmlns="http://www.w3.org/2000/svg">
<g clip-path="url(#clip0_334_1109)">
<path d="M15.8136 3.70068C15.5459 3.70068 15.328 3.91854 15.328 4.18623C15.328 4.45393 15.5459 4.67178 15.8136 4.67178C16.0813 4.67178 16.2991 4.45396 16.2991 4.18623C16.2991 3.9185 16.0813 3.70068 15.8136 3.70068ZM9.99984 5.69541C7.62633 5.69541 5.69531 7.62643 5.69531 9.99994C5.69531 12.3735 7.62633 14.3045 9.99984 14.3045C12.3734 14.3045 14.3044 12.3735 14.3044 9.99998C14.3044 7.62647 12.3734 5.69541 9.99984 5.69541Z" fill="url(#paint0_linear_334_1109)"/>
<path d="M15.8136 3.70068C15.5459 3.70068 15.328 3.91854 15.328 4.18623C15.328 4.45393 15.5459 4.67178 15.8136 4.67178C16.0813 4.67178 16.2991 4.45396 16.2991 4.18623C16.2991 3.9185 16.0813 3.70068 15.8136 3.70068ZM9.99984 5.69541C7.62633 5.69541 5.69531 7.62643 5.69531 9.99994C5.69531 12.3735 7.62633 14.3045 9.99984 14.3045C12.3734 14.3045 14.3044 12.3735 14.3044 9.99998C14.3044 7.62647 12.3734 5.69541 9.99984 5.69541Z" fill="#554795"/>
<g clip-path="url(#clip1_334_1109)">
<path d="M10 20C15.5228 20 20 15.5228 20 10C20 4.47715 15.5228 0 10 0C4.47715 0 0 4.47715 0 10C0 15.5228 4.47715 20 10 20Z" fill="#D0D0D0"/>
<path d="M12.5139 10.3914H10.7295V16.9285H8.02602V10.3914H6.74023V8.09398H8.02602V6.6073C8.02602 5.54416 8.53103 3.87939 10.7536 3.87939L12.7561 3.88777V6.1178H11.3031C11.0648 6.1178 10.7297 6.23688 10.7297 6.74402V8.09612H12.7501L12.5139 10.3914Z" fill="white"/>
</g>
<path d="M9.88965 20.1475C15.4734 20.1475 20 15.6373 20 10.0737C20 4.51016 15.4734 0 9.88965 0C4.30586 0 -0.220703 4.51016 -0.220703 10.0737C-0.220703 15.6373 4.30586 20.1475 9.88965 20.1475Z" fill="#FFDD2D"/>
<path d="M9.88965 20.1475C15.4734 20.1475 20 15.6373 20 10.0737C20 4.51016 15.4734 0 9.88965 0C4.30586 0 -0.220703 4.51016 -0.220703 10.0737C-0.220703 15.6373 4.30586 20.1475 9.88965 20.1475Z" fill="#D0D0D0"/>
<path fill-rule="evenodd" clip-rule="evenodd" d="M4.35638 9.96746C7.30374 8.68798 9.26914 7.84446 10.2525 7.43695C13.0602 6.27336 13.6437 6.07121 14.0239 6.06452C14.1076 6.06307 14.2946 6.08373 14.4157 6.18167C14.5954 6.32695 14.5964 6.64231 14.5765 6.85102C14.4243 8.44393 13.766 12.3094 13.431 14.0935C13.2893 14.8484 13.0102 15.1016 12.7401 15.1263C12.153 15.1801 11.7071 14.7397 11.1384 14.3683C10.2486 13.7871 9.74591 13.4253 8.88214 12.8582C7.88394 12.2028 8.53105 11.8426 9.09991 11.2538C9.2488 11.0998 11.8357 8.75531 11.8857 8.54262C11.892 8.51602 11.8978 8.41686 11.8387 8.36452C11.7796 8.31218 11.6923 8.33005 11.6294 8.34429C11.5401 8.36448 10.1186 9.30067 7.3648 11.1528C6.9613 11.4289 6.59582 11.5634 6.26838 11.5564C5.90737 11.5486 5.21299 11.353 4.69677 11.1858C4.06361 10.9807 3.56039 10.8723 3.60422 10.524C3.62705 10.3426 3.87776 10.1571 4.35638 9.96746Z" fill="white"/>
</g>
<defs>
<linearGradient id="paint0_linear_334_1109" x1="10.9972" y1="3.70068" x2="10.9972" y2="14.3045" gradientUnits="userSpaceOnUse">
<stop stop-color="#CD3CAD"/>
<stop offset="1" stop-color="#5938EE"/>
</linearGradient>
<clipPath id="clip0_334_1109">
<rect width="20" height="20" fill="white"/>
</clipPath>
<clipPath id="clip1_334_1109">
<rect width="20" height="20" fill="white"/>
</clipPath>
</defs>
</svg>
