<svg width="20" height="20" viewBox="0 0 20 20" fill="none" xmlns="http://www.w3.org/2000/svg">
<g id="Frame" clip-path="url(#clip0_334_1037)">
<g id="Group">
<g id="Vector">
<path d="M15.8136 3.70068C15.5459 3.70068 15.328 3.91854 15.328 4.18623C15.328 4.45393 15.5459 4.67178 15.8136 4.67178C16.0813 4.67178 16.2991 4.45396 16.2991 4.18623C16.2991 3.9185 16.0813 3.70068 15.8136 3.70068ZM9.99984 5.69541C7.62633 5.69541 5.69531 7.62643 5.69531 9.99994C5.69531 12.3735 7.62633 14.3045 9.99984 14.3045C12.3734 14.3045 14.3044 12.3735 14.3044 9.99998C14.3044 7.62647 12.3734 5.69541 9.99984 5.69541Z" fill="url(#paint0_linear_334_1037)"/>
<path d="M15.8136 3.70068C15.5459 3.70068 15.328 3.91854 15.328 4.18623C15.328 4.45393 15.5459 4.67178 15.8136 4.67178C16.0813 4.67178 16.2991 4.45396 16.2991 4.18623C16.2991 3.9185 16.0813 3.70068 15.8136 3.70068ZM9.99984 5.69541C7.62633 5.69541 5.69531 7.62643 5.69531 9.99994C5.69531 12.3735 7.62633 14.3045 9.99984 14.3045C12.3734 14.3045 14.3044 12.3735 14.3044 9.99998C14.3044 7.62647 12.3734 5.69541 9.99984 5.69541Z" fill="#D0D0D0"/>
</g>
<g id="Vector_2">
<path d="M14.5173 0H5.4827C2.45953 0 0 2.45953 0 5.48273V14.5173C0 17.5405 2.45953 20 5.4827 20H14.5173C17.5405 20 20 17.5405 20 14.5173V5.48273C20 2.45953 17.5405 0 14.5173 0ZM10 15.4856C6.9752 15.4856 4.51441 13.0248 4.51441 10C4.51441 6.9752 6.97523 4.51445 10 4.51445C13.0248 4.51445 15.4856 6.97523 15.4856 10C15.4856 13.0248 13.0248 15.4856 10 15.4856ZM15.8137 5.85297C14.8947 5.85297 14.1471 5.10531 14.1471 4.18633C14.1471 3.26734 14.8947 2.51965 15.8137 2.51965C16.7327 2.51965 17.4804 3.2673 17.4804 4.18629C17.4804 5.10527 16.7327 5.85297 15.8137 5.85297Z" fill="url(#paint1_linear_334_1037)"/>
<path d="M14.5173 0H5.4827C2.45953 0 0 2.45953 0 5.48273V14.5173C0 17.5405 2.45953 20 5.4827 20H14.5173C17.5405 20 20 17.5405 20 14.5173V5.48273C20 2.45953 17.5405 0 14.5173 0ZM10 15.4856C6.9752 15.4856 4.51441 13.0248 4.51441 10C4.51441 6.9752 6.97523 4.51445 10 4.51445C13.0248 4.51445 15.4856 6.97523 15.4856 10C15.4856 13.0248 13.0248 15.4856 10 15.4856ZM15.8137 5.85297C14.8947 5.85297 14.1471 5.10531 14.1471 4.18633C14.1471 3.26734 14.8947 2.51965 15.8137 2.51965C16.7327 2.51965 17.4804 3.2673 17.4804 4.18629C17.4804 5.10527 16.7327 5.85297 15.8137 5.85297Z" fill="#D0D0D0"/>
</g>
</g>
</g>
<defs>
<linearGradient id="paint0_linear_334_1037" x1="10.9972" y1="3.70068" x2="10.9972" y2="14.3045" gradientUnits="userSpaceOnUse">
<stop stop-color="#CD3CAD"/>
<stop offset="1" stop-color="#5938EE"/>
</linearGradient>
<linearGradient id="paint1_linear_334_1037" x1="10" y1="0" x2="10" y2="20" gradientUnits="userSpaceOnUse">
<stop stop-color="#CD3CAD"/>
<stop offset="1" stop-color="#5938EE"/>
</linearGradient>
<clipPath id="clip0_334_1037">
<rect width="20" height="20" fill="white"/>
</clipPath>
</defs>
</svg>
