<svg width="22" height="22" viewBox="0 0 22 22" fill="none" xmlns="http://www.w3.org/2000/svg">
<g id="Vector">
<path d="M11.2822 0H11.2769C5.36587 0 0.559082 4.7907 0.559082 10.6816C0.559082 13.0182 1.31487 15.1839 2.59999 16.9424L1.26395 20.9106L5.38463 19.5981C7.0798 20.717 9.10194 21.3632 11.2822 21.3632C17.1932 21.3632 22 16.5712 22 10.6816C22 4.79204 17.1932 0 11.2822 0ZM17.5202 15.0838C17.2615 15.8115 16.2351 16.415 15.4163 16.5912C14.8561 16.7101 14.1245 16.8049 11.6615 15.7874C8.51098 14.4869 6.48213 11.2971 6.32401 11.0902C6.17258 10.8832 5.05095 9.40116 5.05095 7.86835C5.05095 6.33553 5.8322 5.58916 6.14712 5.26871C6.40575 5.00567 6.83323 4.8855 7.24328 4.8855C7.37595 4.8855 7.49521 4.89218 7.60242 4.89752C7.91733 4.91087 8.07546 4.92957 8.28317 5.42493C8.5418 6.0458 9.17163 7.57861 9.24667 7.73616C9.32305 7.89371 9.39944 8.10735 9.29223 8.3143C9.19173 8.52794 9.10328 8.62274 8.94516 8.80432C8.78703 8.98591 8.63694 9.12477 8.47882 9.31971C8.33409 9.48928 8.1706 9.67087 8.35285 9.98464C8.5351 10.2917 9.16492 11.3158 10.0922 12.1383C11.2889 13.1998 12.2591 13.5389 12.6062 13.6832C12.8648 13.79 13.173 13.7646 13.362 13.5643C13.6019 13.3066 13.898 12.8794 14.1995 12.4588C14.4139 12.157 14.6846 12.1196 14.9687 12.2264C15.2582 12.3266 16.7898 13.081 17.1048 13.2372C17.4197 13.3947 17.6274 13.4695 17.7038 13.6017C17.7788 13.7339 17.7788 14.3548 17.5202 15.0838Z" fill="#FFDD2D"/>
<path d="M11.2822 0H11.2769C5.36587 0 0.559082 4.7907 0.559082 10.6816C0.559082 13.0182 1.31487 15.1839 2.59999 16.9424L1.26395 20.9106L5.38463 19.5981C7.0798 20.717 9.10194 21.3632 11.2822 21.3632C17.1932 21.3632 22 16.5712 22 10.6816C22 4.79204 17.1932 0 11.2822 0ZM17.5202 15.0838C17.2615 15.8115 16.2351 16.415 15.4163 16.5912C14.8561 16.7101 14.1245 16.8049 11.6615 15.7874C8.51098 14.4869 6.48213 11.2971 6.32401 11.0902C6.17258 10.8832 5.05095 9.40116 5.05095 7.86835C5.05095 6.33553 5.8322 5.58916 6.14712 5.26871C6.40575 5.00567 6.83323 4.8855 7.24328 4.8855C7.37595 4.8855 7.49521 4.89218 7.60242 4.89752C7.91733 4.91087 8.07546 4.92957 8.28317 5.42493C8.5418 6.0458 9.17163 7.57861 9.24667 7.73616C9.32305 7.89371 9.39944 8.10735 9.29223 8.3143C9.19173 8.52794 9.10328 8.62274 8.94516 8.80432C8.78703 8.98591 8.63694 9.12477 8.47882 9.31971C8.33409 9.48928 8.1706 9.67087 8.35285 9.98464C8.5351 10.2917 9.16492 11.3158 10.0922 12.1383C11.2889 13.1998 12.2591 13.5389 12.6062 13.6832C12.8648 13.79 13.173 13.7646 13.362 13.5643C13.6019 13.3066 13.898 12.8794 14.1995 12.4588C14.4139 12.157 14.6846 12.1196 14.9687 12.2264C15.2582 12.3266 16.7898 13.081 17.1048 13.2372C17.4197 13.3947 17.6274 13.4695 17.7038 13.6017C17.7788 13.7339 17.7788 14.3548 17.5202 15.0838Z" fill="#D0D0D0"/>
</g>
</svg>
